%TF.GenerationSoftware,KiCad,Pcbnew,5.1.10*%
%TF.CreationDate,2021-10-24T20:12:05+02:00*%
%TF.ProjectId,PCB,5043422e-6b69-4636-9164-5f7063625858,1.0*%
%TF.SameCoordinates,Original*%
%TF.FileFunction,Legend,Top*%
%TF.FilePolarity,Positive*%
%FSLAX46Y46*%
G04 Gerber Fmt 4.6, Leading zero omitted, Abs format (unit mm)*
G04 Created by KiCad (PCBNEW 5.1.10) date 2021-10-24 20:12:05*
%MOMM*%
%LPD*%
G01*
G04 APERTURE LIST*
%ADD10C,0.300000*%
%ADD11C,0.200000*%
%ADD12C,0.175000*%
%ADD13C,0.120000*%
%ADD14C,0.150000*%
%ADD15C,3.000000*%
%ADD16O,1.700000X1.700000*%
%ADD17C,1.700000*%
%ADD18R,1.500000X1.500000*%
%ADD19O,1.600000X1.600000*%
%ADD20O,2.000000X1.600000*%
%ADD21C,1.600000*%
G04 APERTURE END LIST*
D10*
X53741085Y-94428571D02*
X54098228Y-95928571D01*
X54383942Y-94857142D01*
X54669657Y-95928571D01*
X55026800Y-94428571D01*
X56169657Y-95857142D02*
X56026800Y-95928571D01*
X55741085Y-95928571D01*
X55598228Y-95857142D01*
X55526800Y-95714285D01*
X55526800Y-95142857D01*
X55598228Y-95000000D01*
X55741085Y-94928571D01*
X56026800Y-94928571D01*
X56169657Y-95000000D01*
X56241085Y-95142857D01*
X56241085Y-95285714D01*
X55526800Y-95428571D01*
X56883942Y-95928571D02*
X56883942Y-94428571D01*
X57383942Y-95500000D01*
X57883942Y-94428571D01*
X57883942Y-95928571D01*
X58812514Y-95928571D02*
X58669657Y-95857142D01*
X58598228Y-95785714D01*
X58526800Y-95642857D01*
X58526800Y-95214285D01*
X58598228Y-95071428D01*
X58669657Y-95000000D01*
X58812514Y-94928571D01*
X59026800Y-94928571D01*
X59169657Y-95000000D01*
X59241085Y-95071428D01*
X59312514Y-95214285D01*
X59312514Y-95642857D01*
X59241085Y-95785714D01*
X59169657Y-95857142D01*
X59026800Y-95928571D01*
X58812514Y-95928571D01*
X59883942Y-95857142D02*
X60026800Y-95928571D01*
X60312514Y-95928571D01*
X60455371Y-95857142D01*
X60526800Y-95714285D01*
X60526800Y-95642857D01*
X60455371Y-95500000D01*
X60312514Y-95428571D01*
X60098228Y-95428571D01*
X59955371Y-95357142D01*
X59883942Y-95214285D01*
X59883942Y-95142857D01*
X59955371Y-95000000D01*
X60098228Y-94928571D01*
X60312514Y-94928571D01*
X60455371Y-95000000D01*
X62312514Y-95928571D02*
X62312514Y-94428571D01*
X62669657Y-94428571D01*
X62883942Y-94500000D01*
X63026800Y-94642857D01*
X63098228Y-94785714D01*
X63169657Y-95071428D01*
X63169657Y-95285714D01*
X63098228Y-95571428D01*
X63026800Y-95714285D01*
X62883942Y-95857142D01*
X62669657Y-95928571D01*
X62312514Y-95928571D01*
X64598228Y-95928571D02*
X63741085Y-95928571D01*
X64169657Y-95928571D02*
X64169657Y-94428571D01*
X64026800Y-94642857D01*
X63883942Y-94785714D01*
X63741085Y-94857142D01*
X66383942Y-95928571D02*
X66383942Y-94428571D01*
X66883942Y-95500000D01*
X67383942Y-94428571D01*
X67383942Y-95928571D01*
X68098228Y-95928571D02*
X68098228Y-94928571D01*
X68098228Y-94428571D02*
X68026800Y-94500000D01*
X68098228Y-94571428D01*
X68169657Y-94500000D01*
X68098228Y-94428571D01*
X68098228Y-94571428D01*
X68812514Y-94928571D02*
X68812514Y-95928571D01*
X68812514Y-95071428D02*
X68883942Y-95000000D01*
X69026800Y-94928571D01*
X69241085Y-94928571D01*
X69383942Y-95000000D01*
X69455371Y-95142857D01*
X69455371Y-95928571D01*
X70169657Y-95928571D02*
X70169657Y-94928571D01*
X70169657Y-94428571D02*
X70098228Y-94500000D01*
X70169657Y-94571428D01*
X70241085Y-94500000D01*
X70169657Y-94428571D01*
X70169657Y-94571428D01*
D11*
X54578404Y-83526380D02*
X55197452Y-83526380D01*
X54864119Y-83907333D01*
X55006976Y-83907333D01*
X55102214Y-83954952D01*
X55149833Y-84002571D01*
X55197452Y-84097809D01*
X55197452Y-84335904D01*
X55149833Y-84431142D01*
X55102214Y-84478761D01*
X55006976Y-84526380D01*
X54721261Y-84526380D01*
X54626023Y-84478761D01*
X54578404Y-84431142D01*
X55483166Y-83526380D02*
X55816500Y-84526380D01*
X56149833Y-83526380D01*
X56387928Y-83526380D02*
X57006976Y-83526380D01*
X56673642Y-83907333D01*
X56816500Y-83907333D01*
X56911738Y-83954952D01*
X56959357Y-84002571D01*
X57006976Y-84097809D01*
X57006976Y-84335904D01*
X56959357Y-84431142D01*
X56911738Y-84478761D01*
X56816500Y-84526380D01*
X56530785Y-84526380D01*
X56435547Y-84478761D01*
X56387928Y-84431142D01*
X53538404Y-83574000D02*
X53443166Y-83526380D01*
X53300309Y-83526380D01*
X53157452Y-83574000D01*
X53062214Y-83669238D01*
X53014595Y-83764476D01*
X52966976Y-83954952D01*
X52966976Y-84097809D01*
X53014595Y-84288285D01*
X53062214Y-84383523D01*
X53157452Y-84478761D01*
X53300309Y-84526380D01*
X53395547Y-84526380D01*
X53538404Y-84478761D01*
X53586023Y-84431142D01*
X53586023Y-84097809D01*
X53395547Y-84097809D01*
X107711885Y-115699571D02*
X107711885Y-116099571D01*
X108340457Y-116099571D02*
X107140457Y-116099571D01*
X107140457Y-115528142D01*
X108340457Y-115071000D02*
X107540457Y-115071000D01*
X107769028Y-115071000D02*
X107654742Y-115013857D01*
X107597600Y-114956714D01*
X107540457Y-114842428D01*
X107540457Y-114728142D01*
X108340457Y-114156714D02*
X108283314Y-114271000D01*
X108226171Y-114328142D01*
X108111885Y-114385285D01*
X107769028Y-114385285D01*
X107654742Y-114328142D01*
X107597600Y-114271000D01*
X107540457Y-114156714D01*
X107540457Y-113985285D01*
X107597600Y-113871000D01*
X107654742Y-113813857D01*
X107769028Y-113756714D01*
X108111885Y-113756714D01*
X108226171Y-113813857D01*
X108283314Y-113871000D01*
X108340457Y-113985285D01*
X108340457Y-114156714D01*
X108340457Y-113242428D02*
X107540457Y-113242428D01*
X107654742Y-113242428D02*
X107597600Y-113185285D01*
X107540457Y-113071000D01*
X107540457Y-112899571D01*
X107597600Y-112785285D01*
X107711885Y-112728142D01*
X108340457Y-112728142D01*
X107711885Y-112728142D02*
X107597600Y-112671000D01*
X107540457Y-112556714D01*
X107540457Y-112385285D01*
X107597600Y-112271000D01*
X107711885Y-112213857D01*
X108340457Y-112213857D01*
X108340457Y-110728142D02*
X107140457Y-110728142D01*
X108340457Y-110213857D02*
X107711885Y-110213857D01*
X107597600Y-110271000D01*
X107540457Y-110385285D01*
X107540457Y-110556714D01*
X107597600Y-110671000D01*
X107654742Y-110728142D01*
X108283314Y-109185285D02*
X108340457Y-109299571D01*
X108340457Y-109528142D01*
X108283314Y-109642428D01*
X108169028Y-109699571D01*
X107711885Y-109699571D01*
X107597600Y-109642428D01*
X107540457Y-109528142D01*
X107540457Y-109299571D01*
X107597600Y-109185285D01*
X107711885Y-109128142D01*
X107826171Y-109128142D01*
X107940457Y-109699571D01*
X108340457Y-108099571D02*
X107711885Y-108099571D01*
X107597600Y-108156714D01*
X107540457Y-108271000D01*
X107540457Y-108499571D01*
X107597600Y-108613857D01*
X108283314Y-108099571D02*
X108340457Y-108213857D01*
X108340457Y-108499571D01*
X108283314Y-108613857D01*
X108169028Y-108671000D01*
X108054742Y-108671000D01*
X107940457Y-108613857D01*
X107883314Y-108499571D01*
X107883314Y-108213857D01*
X107826171Y-108099571D01*
X107540457Y-107699571D02*
X107540457Y-107242428D01*
X107140457Y-107528142D02*
X108169028Y-107528142D01*
X108283314Y-107471000D01*
X108340457Y-107356714D01*
X108340457Y-107242428D01*
X108283314Y-106385285D02*
X108340457Y-106499571D01*
X108340457Y-106728142D01*
X108283314Y-106842428D01*
X108169028Y-106899571D01*
X107711885Y-106899571D01*
X107597600Y-106842428D01*
X107540457Y-106728142D01*
X107540457Y-106499571D01*
X107597600Y-106385285D01*
X107711885Y-106328142D01*
X107826171Y-106328142D01*
X107940457Y-106899571D01*
X108340457Y-105813857D02*
X107540457Y-105813857D01*
X107769028Y-105813857D02*
X107654742Y-105756714D01*
X107597600Y-105699571D01*
X107540457Y-105585285D01*
X107540457Y-105471000D01*
X84169523Y-104592380D02*
X84169523Y-103592380D01*
X84550476Y-103592380D01*
X84645714Y-103640000D01*
X84693333Y-103687619D01*
X84740952Y-103782857D01*
X84740952Y-103925714D01*
X84693333Y-104020952D01*
X84645714Y-104068571D01*
X84550476Y-104116190D01*
X84169523Y-104116190D01*
X85740952Y-104497142D02*
X85693333Y-104544761D01*
X85550476Y-104592380D01*
X85455238Y-104592380D01*
X85312380Y-104544761D01*
X85217142Y-104449523D01*
X85169523Y-104354285D01*
X85121904Y-104163809D01*
X85121904Y-104020952D01*
X85169523Y-103830476D01*
X85217142Y-103735238D01*
X85312380Y-103640000D01*
X85455238Y-103592380D01*
X85550476Y-103592380D01*
X85693333Y-103640000D01*
X85740952Y-103687619D01*
X86312380Y-104020952D02*
X86217142Y-103973333D01*
X86169523Y-103925714D01*
X86121904Y-103830476D01*
X86121904Y-103782857D01*
X86169523Y-103687619D01*
X86217142Y-103640000D01*
X86312380Y-103592380D01*
X86502857Y-103592380D01*
X86598095Y-103640000D01*
X86645714Y-103687619D01*
X86693333Y-103782857D01*
X86693333Y-103830476D01*
X86645714Y-103925714D01*
X86598095Y-103973333D01*
X86502857Y-104020952D01*
X86312380Y-104020952D01*
X86217142Y-104068571D01*
X86169523Y-104116190D01*
X86121904Y-104211428D01*
X86121904Y-104401904D01*
X86169523Y-104497142D01*
X86217142Y-104544761D01*
X86312380Y-104592380D01*
X86502857Y-104592380D01*
X86598095Y-104544761D01*
X86645714Y-104497142D01*
X86693333Y-104401904D01*
X86693333Y-104211428D01*
X86645714Y-104116190D01*
X86598095Y-104068571D01*
X86502857Y-104020952D01*
X87645714Y-104592380D02*
X87074285Y-104592380D01*
X87360000Y-104592380D02*
X87360000Y-103592380D01*
X87264761Y-103735238D01*
X87169523Y-103830476D01*
X87074285Y-103878095D01*
X87979047Y-103592380D02*
X88645714Y-103592380D01*
X88217142Y-104592380D01*
X94329523Y-117419380D02*
X94329523Y-116419380D01*
X94710476Y-116419380D01*
X94805714Y-116467000D01*
X94853333Y-116514619D01*
X94900952Y-116609857D01*
X94900952Y-116752714D01*
X94853333Y-116847952D01*
X94805714Y-116895571D01*
X94710476Y-116943190D01*
X94329523Y-116943190D01*
X95900952Y-117324142D02*
X95853333Y-117371761D01*
X95710476Y-117419380D01*
X95615238Y-117419380D01*
X95472380Y-117371761D01*
X95377142Y-117276523D01*
X95329523Y-117181285D01*
X95281904Y-116990809D01*
X95281904Y-116847952D01*
X95329523Y-116657476D01*
X95377142Y-116562238D01*
X95472380Y-116467000D01*
X95615238Y-116419380D01*
X95710476Y-116419380D01*
X95853333Y-116467000D01*
X95900952Y-116514619D01*
X96472380Y-116847952D02*
X96377142Y-116800333D01*
X96329523Y-116752714D01*
X96281904Y-116657476D01*
X96281904Y-116609857D01*
X96329523Y-116514619D01*
X96377142Y-116467000D01*
X96472380Y-116419380D01*
X96662857Y-116419380D01*
X96758095Y-116467000D01*
X96805714Y-116514619D01*
X96853333Y-116609857D01*
X96853333Y-116657476D01*
X96805714Y-116752714D01*
X96758095Y-116800333D01*
X96662857Y-116847952D01*
X96472380Y-116847952D01*
X96377142Y-116895571D01*
X96329523Y-116943190D01*
X96281904Y-117038428D01*
X96281904Y-117228904D01*
X96329523Y-117324142D01*
X96377142Y-117371761D01*
X96472380Y-117419380D01*
X96662857Y-117419380D01*
X96758095Y-117371761D01*
X96805714Y-117324142D01*
X96853333Y-117228904D01*
X96853333Y-117038428D01*
X96805714Y-116943190D01*
X96758095Y-116895571D01*
X96662857Y-116847952D01*
X97805714Y-117419380D02*
X97234285Y-117419380D01*
X97520000Y-117419380D02*
X97520000Y-116419380D01*
X97424761Y-116562238D01*
X97329523Y-116657476D01*
X97234285Y-116705095D01*
X98139047Y-116419380D02*
X98805714Y-116419380D01*
X98377142Y-117419380D01*
X94329523Y-92019380D02*
X94329523Y-91019380D01*
X94710476Y-91019380D01*
X94805714Y-91067000D01*
X94853333Y-91114619D01*
X94900952Y-91209857D01*
X94900952Y-91352714D01*
X94853333Y-91447952D01*
X94805714Y-91495571D01*
X94710476Y-91543190D01*
X94329523Y-91543190D01*
X95900952Y-91924142D02*
X95853333Y-91971761D01*
X95710476Y-92019380D01*
X95615238Y-92019380D01*
X95472380Y-91971761D01*
X95377142Y-91876523D01*
X95329523Y-91781285D01*
X95281904Y-91590809D01*
X95281904Y-91447952D01*
X95329523Y-91257476D01*
X95377142Y-91162238D01*
X95472380Y-91067000D01*
X95615238Y-91019380D01*
X95710476Y-91019380D01*
X95853333Y-91067000D01*
X95900952Y-91114619D01*
X96472380Y-91447952D02*
X96377142Y-91400333D01*
X96329523Y-91352714D01*
X96281904Y-91257476D01*
X96281904Y-91209857D01*
X96329523Y-91114619D01*
X96377142Y-91067000D01*
X96472380Y-91019380D01*
X96662857Y-91019380D01*
X96758095Y-91067000D01*
X96805714Y-91114619D01*
X96853333Y-91209857D01*
X96853333Y-91257476D01*
X96805714Y-91352714D01*
X96758095Y-91400333D01*
X96662857Y-91447952D01*
X96472380Y-91447952D01*
X96377142Y-91495571D01*
X96329523Y-91543190D01*
X96281904Y-91638428D01*
X96281904Y-91828904D01*
X96329523Y-91924142D01*
X96377142Y-91971761D01*
X96472380Y-92019380D01*
X96662857Y-92019380D01*
X96758095Y-91971761D01*
X96805714Y-91924142D01*
X96853333Y-91828904D01*
X96853333Y-91638428D01*
X96805714Y-91543190D01*
X96758095Y-91495571D01*
X96662857Y-91447952D01*
X97805714Y-92019380D02*
X97234285Y-92019380D01*
X97520000Y-92019380D02*
X97520000Y-91019380D01*
X97424761Y-91162238D01*
X97329523Y-91257476D01*
X97234285Y-91305095D01*
X98139047Y-91019380D02*
X98805714Y-91019380D01*
X98377142Y-92019380D01*
X108365857Y-94843142D02*
X107165857Y-94843142D01*
X107165857Y-94386000D01*
X107223000Y-94271714D01*
X107280142Y-94214571D01*
X107394428Y-94157428D01*
X107565857Y-94157428D01*
X107680142Y-94214571D01*
X107737285Y-94271714D01*
X107794428Y-94386000D01*
X107794428Y-94843142D01*
X108365857Y-93471714D02*
X108308714Y-93586000D01*
X108251571Y-93643142D01*
X108137285Y-93700285D01*
X107794428Y-93700285D01*
X107680142Y-93643142D01*
X107623000Y-93586000D01*
X107565857Y-93471714D01*
X107565857Y-93300285D01*
X107623000Y-93186000D01*
X107680142Y-93128857D01*
X107794428Y-93071714D01*
X108137285Y-93071714D01*
X108251571Y-93128857D01*
X108308714Y-93186000D01*
X108365857Y-93300285D01*
X108365857Y-93471714D01*
X107565857Y-92671714D02*
X108365857Y-92443142D01*
X107794428Y-92214571D01*
X108365857Y-91986000D01*
X107565857Y-91757428D01*
X108308714Y-90843142D02*
X108365857Y-90957428D01*
X108365857Y-91186000D01*
X108308714Y-91300285D01*
X108194428Y-91357428D01*
X107737285Y-91357428D01*
X107623000Y-91300285D01*
X107565857Y-91186000D01*
X107565857Y-90957428D01*
X107623000Y-90843142D01*
X107737285Y-90786000D01*
X107851571Y-90786000D01*
X107965857Y-91357428D01*
X108365857Y-90271714D02*
X107565857Y-90271714D01*
X107794428Y-90271714D02*
X107680142Y-90214571D01*
X107623000Y-90157428D01*
X107565857Y-90043142D01*
X107565857Y-89928857D01*
X108365857Y-88614571D02*
X107565857Y-88614571D01*
X107165857Y-88614571D02*
X107223000Y-88671714D01*
X107280142Y-88614571D01*
X107223000Y-88557428D01*
X107165857Y-88614571D01*
X107280142Y-88614571D01*
X107565857Y-88043142D02*
X108365857Y-88043142D01*
X107680142Y-88043142D02*
X107623000Y-87986000D01*
X107565857Y-87871714D01*
X107565857Y-87700285D01*
X107623000Y-87586000D01*
X107737285Y-87528857D01*
X108365857Y-87528857D01*
X117637000Y-116865285D02*
X117579857Y-116979571D01*
X117579857Y-117151000D01*
X117637000Y-117322428D01*
X117751285Y-117436714D01*
X117865571Y-117493857D01*
X118094142Y-117551000D01*
X118265571Y-117551000D01*
X118494142Y-117493857D01*
X118608428Y-117436714D01*
X118722714Y-117322428D01*
X118779857Y-117151000D01*
X118779857Y-117036714D01*
X118722714Y-116865285D01*
X118665571Y-116808142D01*
X118265571Y-116808142D01*
X118265571Y-117036714D01*
X118779857Y-116293857D02*
X117579857Y-116293857D01*
X118779857Y-115608142D01*
X117579857Y-115608142D01*
X118779857Y-115036714D02*
X117579857Y-115036714D01*
X117579857Y-114751000D01*
X117637000Y-114579571D01*
X117751285Y-114465285D01*
X117865571Y-114408142D01*
X118094142Y-114351000D01*
X118265571Y-114351000D01*
X118494142Y-114408142D01*
X118608428Y-114465285D01*
X118722714Y-114579571D01*
X118779857Y-114751000D01*
X118779857Y-115036714D01*
X118722714Y-113242428D02*
X118779857Y-113071000D01*
X118779857Y-112785285D01*
X118722714Y-112671000D01*
X118665571Y-112613857D01*
X118551285Y-112556714D01*
X118437000Y-112556714D01*
X118322714Y-112613857D01*
X118265571Y-112671000D01*
X118208428Y-112785285D01*
X118151285Y-113013857D01*
X118094142Y-113128142D01*
X118037000Y-113185285D01*
X117922714Y-113242428D01*
X117808428Y-113242428D01*
X117694142Y-113185285D01*
X117637000Y-113128142D01*
X117579857Y-113013857D01*
X117579857Y-112728142D01*
X117637000Y-112556714D01*
X118722714Y-111585285D02*
X118779857Y-111699571D01*
X118779857Y-111928142D01*
X118722714Y-112042428D01*
X118608428Y-112099571D01*
X118151285Y-112099571D01*
X118037000Y-112042428D01*
X117979857Y-111928142D01*
X117979857Y-111699571D01*
X118037000Y-111585285D01*
X118151285Y-111528142D01*
X118265571Y-111528142D01*
X118379857Y-112099571D01*
X118779857Y-111013857D02*
X117979857Y-111013857D01*
X118208428Y-111013857D02*
X118094142Y-110956714D01*
X118037000Y-110899571D01*
X117979857Y-110785285D01*
X117979857Y-110671000D01*
X118779857Y-110271000D02*
X117979857Y-110271000D01*
X117579857Y-110271000D02*
X117637000Y-110328142D01*
X117694142Y-110271000D01*
X117637000Y-110213857D01*
X117579857Y-110271000D01*
X117694142Y-110271000D01*
X118779857Y-109185285D02*
X118151285Y-109185285D01*
X118037000Y-109242428D01*
X117979857Y-109356714D01*
X117979857Y-109585285D01*
X118037000Y-109699571D01*
X118722714Y-109185285D02*
X118779857Y-109299571D01*
X118779857Y-109585285D01*
X118722714Y-109699571D01*
X118608428Y-109756714D01*
X118494142Y-109756714D01*
X118379857Y-109699571D01*
X118322714Y-109585285D01*
X118322714Y-109299571D01*
X118265571Y-109185285D01*
X118779857Y-108442428D02*
X118722714Y-108556714D01*
X118608428Y-108613857D01*
X117579857Y-108613857D01*
X117579857Y-106019571D02*
X117579857Y-106591000D01*
X118151285Y-106648142D01*
X118094142Y-106591000D01*
X118037000Y-106476714D01*
X118037000Y-106191000D01*
X118094142Y-106076714D01*
X118151285Y-106019571D01*
X118265571Y-105962428D01*
X118551285Y-105962428D01*
X118665571Y-106019571D01*
X118722714Y-106076714D01*
X118779857Y-106191000D01*
X118779857Y-106476714D01*
X118722714Y-106591000D01*
X118665571Y-106648142D01*
X117579857Y-105619571D02*
X118779857Y-105219571D01*
X117579857Y-104819571D01*
X117637000Y-94640285D02*
X117579857Y-94754571D01*
X117579857Y-94926000D01*
X117637000Y-95097428D01*
X117751285Y-95211714D01*
X117865571Y-95268857D01*
X118094142Y-95326000D01*
X118265571Y-95326000D01*
X118494142Y-95268857D01*
X118608428Y-95211714D01*
X118722714Y-95097428D01*
X118779857Y-94926000D01*
X118779857Y-94811714D01*
X118722714Y-94640285D01*
X118665571Y-94583142D01*
X118265571Y-94583142D01*
X118265571Y-94811714D01*
X118779857Y-94068857D02*
X117579857Y-94068857D01*
X118779857Y-93383142D01*
X117579857Y-93383142D01*
X118779857Y-92811714D02*
X117579857Y-92811714D01*
X117579857Y-92526000D01*
X117637000Y-92354571D01*
X117751285Y-92240285D01*
X117865571Y-92183142D01*
X118094142Y-92126000D01*
X118265571Y-92126000D01*
X118494142Y-92183142D01*
X118608428Y-92240285D01*
X118722714Y-92354571D01*
X118779857Y-92526000D01*
X118779857Y-92811714D01*
X117579857Y-90417428D02*
X117579857Y-89674571D01*
X118037000Y-90074571D01*
X118037000Y-89903142D01*
X118094142Y-89788857D01*
X118151285Y-89731714D01*
X118265571Y-89674571D01*
X118551285Y-89674571D01*
X118665571Y-89731714D01*
X118722714Y-89788857D01*
X118779857Y-89903142D01*
X118779857Y-90246000D01*
X118722714Y-90360285D01*
X118665571Y-90417428D01*
X118665571Y-89160285D02*
X118722714Y-89103142D01*
X118779857Y-89160285D01*
X118722714Y-89217428D01*
X118665571Y-89160285D01*
X118779857Y-89160285D01*
X117579857Y-88703142D02*
X117579857Y-87960285D01*
X118037000Y-88360285D01*
X118037000Y-88188857D01*
X118094142Y-88074571D01*
X118151285Y-88017428D01*
X118265571Y-87960285D01*
X118551285Y-87960285D01*
X118665571Y-88017428D01*
X118722714Y-88074571D01*
X118779857Y-88188857D01*
X118779857Y-88531714D01*
X118722714Y-88646000D01*
X118665571Y-88703142D01*
X117579857Y-87617428D02*
X118779857Y-87217428D01*
X117579857Y-86817428D01*
X80575333Y-83809619D02*
X80208666Y-83285809D01*
X79946761Y-83809619D02*
X79946761Y-82709619D01*
X80365809Y-82709619D01*
X80470571Y-82762000D01*
X80522952Y-82814380D01*
X80575333Y-82919142D01*
X80575333Y-83076285D01*
X80522952Y-83181047D01*
X80470571Y-83233428D01*
X80365809Y-83285809D01*
X79946761Y-83285809D01*
X81465809Y-83757238D02*
X81361047Y-83809619D01*
X81151523Y-83809619D01*
X81046761Y-83757238D01*
X80994380Y-83652476D01*
X80994380Y-83233428D01*
X81046761Y-83128666D01*
X81151523Y-83076285D01*
X81361047Y-83076285D01*
X81465809Y-83128666D01*
X81518190Y-83233428D01*
X81518190Y-83338190D01*
X80994380Y-83442952D01*
X81989619Y-83809619D02*
X81989619Y-83076285D01*
X81989619Y-82709619D02*
X81937238Y-82762000D01*
X81989619Y-82814380D01*
X82042000Y-82762000D01*
X81989619Y-82709619D01*
X81989619Y-82814380D01*
X82513428Y-83076285D02*
X82513428Y-83809619D01*
X82513428Y-83181047D02*
X82565809Y-83128666D01*
X82670571Y-83076285D01*
X82827714Y-83076285D01*
X82932476Y-83128666D01*
X82984857Y-83233428D01*
X82984857Y-83809619D01*
X83508666Y-83809619D02*
X83508666Y-83076285D01*
X83508666Y-82709619D02*
X83456285Y-82762000D01*
X83508666Y-82814380D01*
X83561047Y-82762000D01*
X83508666Y-82709619D01*
X83508666Y-82814380D01*
X83875333Y-83076285D02*
X84294380Y-83076285D01*
X84032476Y-82709619D02*
X84032476Y-83652476D01*
X84084857Y-83757238D01*
X84189619Y-83809619D01*
X84294380Y-83809619D01*
X70307295Y-83526380D02*
X70878723Y-83526380D01*
X70593009Y-84526380D02*
X70593009Y-83526380D01*
X71116819Y-83526380D02*
X71783485Y-84526380D01*
X71783485Y-83526380D02*
X71116819Y-84526380D01*
X68362533Y-84526380D02*
X68029200Y-84050190D01*
X67791104Y-84526380D02*
X67791104Y-83526380D01*
X68172057Y-83526380D01*
X68267295Y-83574000D01*
X68314914Y-83621619D01*
X68362533Y-83716857D01*
X68362533Y-83859714D01*
X68314914Y-83954952D01*
X68267295Y-84002571D01*
X68172057Y-84050190D01*
X67791104Y-84050190D01*
X68695866Y-83526380D02*
X69362533Y-84526380D01*
X69362533Y-83526380D02*
X68695866Y-84526380D01*
X65251104Y-84526380D02*
X65251104Y-83526380D01*
X65489200Y-83526380D01*
X65632057Y-83574000D01*
X65727295Y-83669238D01*
X65774914Y-83764476D01*
X65822533Y-83954952D01*
X65822533Y-84097809D01*
X65774914Y-84288285D01*
X65727295Y-84383523D01*
X65632057Y-84478761D01*
X65489200Y-84526380D01*
X65251104Y-84526380D01*
X66774914Y-84526380D02*
X66203485Y-84526380D01*
X66489200Y-84526380D02*
X66489200Y-83526380D01*
X66393961Y-83669238D01*
X66298723Y-83764476D01*
X66203485Y-83812095D01*
X62711104Y-84526380D02*
X62711104Y-83526380D01*
X62949200Y-83526380D01*
X63092057Y-83574000D01*
X63187295Y-83669238D01*
X63234914Y-83764476D01*
X63282533Y-83954952D01*
X63282533Y-84097809D01*
X63234914Y-84288285D01*
X63187295Y-84383523D01*
X63092057Y-84478761D01*
X62949200Y-84526380D01*
X62711104Y-84526380D01*
X63853961Y-83954952D02*
X63758723Y-83907333D01*
X63711104Y-83859714D01*
X63663485Y-83764476D01*
X63663485Y-83716857D01*
X63711104Y-83621619D01*
X63758723Y-83574000D01*
X63853961Y-83526380D01*
X64044438Y-83526380D01*
X64139676Y-83574000D01*
X64187295Y-83621619D01*
X64234914Y-83716857D01*
X64234914Y-83764476D01*
X64187295Y-83859714D01*
X64139676Y-83907333D01*
X64044438Y-83954952D01*
X63853961Y-83954952D01*
X63758723Y-84002571D01*
X63711104Y-84050190D01*
X63663485Y-84145428D01*
X63663485Y-84335904D01*
X63711104Y-84431142D01*
X63758723Y-84478761D01*
X63853961Y-84526380D01*
X64044438Y-84526380D01*
X64139676Y-84478761D01*
X64187295Y-84431142D01*
X64234914Y-84335904D01*
X64234914Y-84145428D01*
X64187295Y-84050190D01*
X64139676Y-84002571D01*
X64044438Y-83954952D01*
X60171104Y-84526380D02*
X60171104Y-83526380D01*
X60409200Y-83526380D01*
X60552057Y-83574000D01*
X60647295Y-83669238D01*
X60694914Y-83764476D01*
X60742533Y-83954952D01*
X60742533Y-84097809D01*
X60694914Y-84288285D01*
X60647295Y-84383523D01*
X60552057Y-84478761D01*
X60409200Y-84526380D01*
X60171104Y-84526380D01*
X61075866Y-83526380D02*
X61742533Y-83526380D01*
X61313961Y-84526380D01*
X57631104Y-84526380D02*
X57631104Y-83526380D01*
X57869200Y-83526380D01*
X58012057Y-83574000D01*
X58107295Y-83669238D01*
X58154914Y-83764476D01*
X58202533Y-83954952D01*
X58202533Y-84097809D01*
X58154914Y-84288285D01*
X58107295Y-84383523D01*
X58012057Y-84478761D01*
X57869200Y-84526380D01*
X57631104Y-84526380D01*
X59059676Y-83526380D02*
X58869200Y-83526380D01*
X58773961Y-83574000D01*
X58726342Y-83621619D01*
X58631104Y-83764476D01*
X58583485Y-83954952D01*
X58583485Y-84335904D01*
X58631104Y-84431142D01*
X58678723Y-84478761D01*
X58773961Y-84526380D01*
X58964438Y-84526380D01*
X59059676Y-84478761D01*
X59107295Y-84431142D01*
X59154914Y-84335904D01*
X59154914Y-84097809D01*
X59107295Y-84002571D01*
X59059676Y-83954952D01*
X58964438Y-83907333D01*
X58773961Y-83907333D01*
X58678723Y-83954952D01*
X58631104Y-84002571D01*
X58583485Y-84097809D01*
X99258571Y-103572571D02*
X98544285Y-103572571D01*
X98472857Y-104286857D01*
X98544285Y-104215428D01*
X98687142Y-104144000D01*
X99044285Y-104144000D01*
X99187142Y-104215428D01*
X99258571Y-104286857D01*
X99330000Y-104429714D01*
X99330000Y-104786857D01*
X99258571Y-104929714D01*
X99187142Y-105001142D01*
X99044285Y-105072571D01*
X98687142Y-105072571D01*
X98544285Y-105001142D01*
X98472857Y-104929714D01*
X100758571Y-105072571D02*
X99901428Y-105072571D01*
X100330000Y-105072571D02*
X100330000Y-103572571D01*
X100187142Y-103786857D01*
X100044285Y-103929714D01*
X99901428Y-104001142D01*
X101687142Y-103572571D02*
X101830000Y-103572571D01*
X101972857Y-103644000D01*
X102044285Y-103715428D01*
X102115714Y-103858285D01*
X102187142Y-104144000D01*
X102187142Y-104501142D01*
X102115714Y-104786857D01*
X102044285Y-104929714D01*
X101972857Y-105001142D01*
X101830000Y-105072571D01*
X101687142Y-105072571D01*
X101544285Y-105001142D01*
X101472857Y-104929714D01*
X101401428Y-104786857D01*
X101330000Y-104501142D01*
X101330000Y-104144000D01*
X101401428Y-103858285D01*
X101472857Y-103715428D01*
X101544285Y-103644000D01*
X101687142Y-103572571D01*
X83125571Y-117911428D02*
X83125571Y-118625714D01*
X83839857Y-118697142D01*
X83768428Y-118625714D01*
X83697000Y-118482857D01*
X83697000Y-118125714D01*
X83768428Y-117982857D01*
X83839857Y-117911428D01*
X83982714Y-117840000D01*
X84339857Y-117840000D01*
X84482714Y-117911428D01*
X84554142Y-117982857D01*
X84625571Y-118125714D01*
X84625571Y-118482857D01*
X84554142Y-118625714D01*
X84482714Y-118697142D01*
X84625571Y-116411428D02*
X84625571Y-117268571D01*
X84625571Y-116840000D02*
X83125571Y-116840000D01*
X83339857Y-116982857D01*
X83482714Y-117125714D01*
X83554142Y-117268571D01*
X83125571Y-115482857D02*
X83125571Y-115340000D01*
X83197000Y-115197142D01*
X83268428Y-115125714D01*
X83411285Y-115054285D01*
X83697000Y-114982857D01*
X84054142Y-114982857D01*
X84339857Y-115054285D01*
X84482714Y-115125714D01*
X84554142Y-115197142D01*
X84625571Y-115340000D01*
X84625571Y-115482857D01*
X84554142Y-115625714D01*
X84482714Y-115697142D01*
X84339857Y-115768571D01*
X84054142Y-115840000D01*
X83697000Y-115840000D01*
X83411285Y-115768571D01*
X83268428Y-115697142D01*
X83197000Y-115625714D01*
X83125571Y-115482857D01*
X83125571Y-92511428D02*
X83125571Y-93225714D01*
X83839857Y-93297142D01*
X83768428Y-93225714D01*
X83697000Y-93082857D01*
X83697000Y-92725714D01*
X83768428Y-92582857D01*
X83839857Y-92511428D01*
X83982714Y-92440000D01*
X84339857Y-92440000D01*
X84482714Y-92511428D01*
X84554142Y-92582857D01*
X84625571Y-92725714D01*
X84625571Y-93082857D01*
X84554142Y-93225714D01*
X84482714Y-93297142D01*
X84625571Y-91011428D02*
X84625571Y-91868571D01*
X84625571Y-91440000D02*
X83125571Y-91440000D01*
X83339857Y-91582857D01*
X83482714Y-91725714D01*
X83554142Y-91868571D01*
X83125571Y-90082857D02*
X83125571Y-89940000D01*
X83197000Y-89797142D01*
X83268428Y-89725714D01*
X83411285Y-89654285D01*
X83697000Y-89582857D01*
X84054142Y-89582857D01*
X84339857Y-89654285D01*
X84482714Y-89725714D01*
X84554142Y-89797142D01*
X84625571Y-89940000D01*
X84625571Y-90082857D01*
X84554142Y-90225714D01*
X84482714Y-90297142D01*
X84339857Y-90368571D01*
X84054142Y-90440000D01*
X83697000Y-90440000D01*
X83411285Y-90368571D01*
X83268428Y-90297142D01*
X83197000Y-90225714D01*
X83125571Y-90082857D01*
D12*
X45998000Y-102392500D02*
X46698000Y-102392500D01*
X46564666Y-103440666D02*
X46331333Y-103107333D01*
X46164666Y-103440666D02*
X46164666Y-102740666D01*
X46431333Y-102740666D01*
X46498000Y-102774000D01*
X46531333Y-102807333D01*
X46564666Y-102874000D01*
X46564666Y-102974000D01*
X46531333Y-103040666D01*
X46498000Y-103074000D01*
X46431333Y-103107333D01*
X46164666Y-103107333D01*
X46698000Y-102392500D02*
X47298000Y-102392500D01*
X47131333Y-103407333D02*
X47064666Y-103440666D01*
X46931333Y-103440666D01*
X46864666Y-103407333D01*
X46831333Y-103340666D01*
X46831333Y-103074000D01*
X46864666Y-103007333D01*
X46931333Y-102974000D01*
X47064666Y-102974000D01*
X47131333Y-103007333D01*
X47164666Y-103074000D01*
X47164666Y-103140666D01*
X46831333Y-103207333D01*
X47298000Y-102392500D02*
X47631333Y-102392500D01*
X47464666Y-103440666D02*
X47464666Y-102974000D01*
X47464666Y-102740666D02*
X47431333Y-102774000D01*
X47464666Y-102807333D01*
X47498000Y-102774000D01*
X47464666Y-102740666D01*
X47464666Y-102807333D01*
X47631333Y-102392500D02*
X48264666Y-102392500D01*
X47798000Y-102974000D02*
X47798000Y-103440666D01*
X47798000Y-103040666D02*
X47831333Y-103007333D01*
X47898000Y-102974000D01*
X47998000Y-102974000D01*
X48064666Y-103007333D01*
X48098000Y-103074000D01*
X48098000Y-103440666D01*
X48264666Y-102392500D02*
X48598000Y-102392500D01*
X48431333Y-103440666D02*
X48431333Y-102974000D01*
X48431333Y-102740666D02*
X48398000Y-102774000D01*
X48431333Y-102807333D01*
X48464666Y-102774000D01*
X48431333Y-102740666D01*
X48431333Y-102807333D01*
X48598000Y-102392500D02*
X48998000Y-102392500D01*
X48664666Y-102974000D02*
X48931333Y-102974000D01*
X48764666Y-102740666D02*
X48764666Y-103340666D01*
X48798000Y-103407333D01*
X48864666Y-103440666D01*
X48931333Y-103440666D01*
D11*
X75652523Y-107224000D02*
X76414428Y-107224000D01*
X75747761Y-107656380D02*
X76319190Y-107656380D01*
X76033476Y-108656380D02*
X76033476Y-107656380D01*
X76414428Y-107224000D02*
X77366809Y-107224000D01*
X76557285Y-107656380D02*
X77223952Y-108656380D01*
X77223952Y-107656380D02*
X76557285Y-108656380D01*
X77366809Y-107224000D02*
X78128714Y-107224000D01*
X77366809Y-108751619D02*
X78128714Y-108751619D01*
X78128714Y-107224000D02*
X79033476Y-107224000D01*
X78366809Y-108656380D02*
X78366809Y-107656380D01*
X78795380Y-108656380D02*
X78795380Y-108132571D01*
X78747761Y-108037333D01*
X78652523Y-107989714D01*
X78509666Y-107989714D01*
X78414428Y-108037333D01*
X78366809Y-108084952D01*
X75660476Y-104684000D02*
X76660476Y-104684000D01*
X76470000Y-106116380D02*
X76136666Y-105640190D01*
X75898571Y-106116380D02*
X75898571Y-105116380D01*
X76279523Y-105116380D01*
X76374761Y-105164000D01*
X76422380Y-105211619D01*
X76470000Y-105306857D01*
X76470000Y-105449714D01*
X76422380Y-105544952D01*
X76374761Y-105592571D01*
X76279523Y-105640190D01*
X75898571Y-105640190D01*
X76660476Y-104684000D02*
X77612857Y-104684000D01*
X76803333Y-105116380D02*
X77470000Y-106116380D01*
X77470000Y-105116380D02*
X76803333Y-106116380D01*
X77612857Y-104684000D02*
X78374761Y-104684000D01*
X77612857Y-106211619D02*
X78374761Y-106211619D01*
X78374761Y-104684000D02*
X79279523Y-104684000D01*
X78612857Y-106116380D02*
X78612857Y-105116380D01*
X79041428Y-106116380D02*
X79041428Y-105592571D01*
X78993809Y-105497333D01*
X78898571Y-105449714D01*
X78755714Y-105449714D01*
X78660476Y-105497333D01*
X78612857Y-105544952D01*
X75755809Y-102925571D02*
X76089142Y-102925571D01*
X76232000Y-103449380D02*
X75755809Y-103449380D01*
X75755809Y-102449380D01*
X76232000Y-102449380D01*
X76660571Y-102782714D02*
X76660571Y-103449380D01*
X76660571Y-102877952D02*
X76708190Y-102830333D01*
X76803428Y-102782714D01*
X76946285Y-102782714D01*
X77041523Y-102830333D01*
X77089142Y-102925571D01*
X77089142Y-103449380D01*
X77993904Y-103449380D02*
X77993904Y-102925571D01*
X77946285Y-102830333D01*
X77851047Y-102782714D01*
X77660571Y-102782714D01*
X77565333Y-102830333D01*
X77993904Y-103401761D02*
X77898666Y-103449380D01*
X77660571Y-103449380D01*
X77565333Y-103401761D01*
X77517714Y-103306523D01*
X77517714Y-103211285D01*
X77565333Y-103116047D01*
X77660571Y-103068428D01*
X77898666Y-103068428D01*
X77993904Y-103020809D01*
X78232000Y-103544619D02*
X78993904Y-103544619D01*
X79803428Y-103449380D02*
X79470095Y-102973190D01*
X79232000Y-103449380D02*
X79232000Y-102449380D01*
X79612952Y-102449380D01*
X79708190Y-102497000D01*
X79755809Y-102544619D01*
X79803428Y-102639857D01*
X79803428Y-102782714D01*
X79755809Y-102877952D01*
X79708190Y-102925571D01*
X79612952Y-102973190D01*
X79232000Y-102973190D01*
X80136761Y-102449380D02*
X80803428Y-103449380D01*
X80803428Y-102449380D02*
X80136761Y-103449380D01*
X76200095Y-110244000D02*
X76104857Y-110196380D01*
X75962000Y-110196380D01*
X75819142Y-110244000D01*
X75723904Y-110339238D01*
X75676285Y-110434476D01*
X75628666Y-110624952D01*
X75628666Y-110767809D01*
X75676285Y-110958285D01*
X75723904Y-111053523D01*
X75819142Y-111148761D01*
X75962000Y-111196380D01*
X76057238Y-111196380D01*
X76200095Y-111148761D01*
X76247714Y-111101142D01*
X76247714Y-110767809D01*
X76057238Y-110767809D01*
X76676285Y-111196380D02*
X76676285Y-110196380D01*
X77247714Y-111196380D01*
X77247714Y-110196380D01*
X77723904Y-111196380D02*
X77723904Y-110196380D01*
X77962000Y-110196380D01*
X78104857Y-110244000D01*
X78200095Y-110339238D01*
X78247714Y-110434476D01*
X78295333Y-110624952D01*
X78295333Y-110767809D01*
X78247714Y-110958285D01*
X78200095Y-111053523D01*
X78104857Y-111148761D01*
X77962000Y-111196380D01*
X77723904Y-111196380D01*
X46021809Y-112736380D02*
X46640857Y-112736380D01*
X46307523Y-113117333D01*
X46450380Y-113117333D01*
X46545619Y-113164952D01*
X46593238Y-113212571D01*
X46640857Y-113307809D01*
X46640857Y-113545904D01*
X46593238Y-113641142D01*
X46545619Y-113688761D01*
X46450380Y-113736380D01*
X46164666Y-113736380D01*
X46069428Y-113688761D01*
X46021809Y-113641142D01*
X47069428Y-113641142D02*
X47117047Y-113688761D01*
X47069428Y-113736380D01*
X47021809Y-113688761D01*
X47069428Y-113641142D01*
X47069428Y-113736380D01*
X47450380Y-112736380D02*
X48069428Y-112736380D01*
X47736095Y-113117333D01*
X47878952Y-113117333D01*
X47974190Y-113164952D01*
X48021809Y-113212571D01*
X48069428Y-113307809D01*
X48069428Y-113545904D01*
X48021809Y-113641142D01*
X47974190Y-113688761D01*
X47878952Y-113736380D01*
X47593238Y-113736380D01*
X47498000Y-113688761D01*
X47450380Y-113641142D01*
X48355142Y-112736380D02*
X48688476Y-113736380D01*
X49021809Y-112736380D01*
D13*
X109093000Y-103251000D02*
X116713000Y-103251000D01*
X109093000Y-118491000D02*
X116713000Y-118491000D01*
X110363000Y-103251000D02*
X110363000Y-118491000D01*
X116713000Y-103251000D02*
X116713000Y-118491000D01*
X109093000Y-103251000D02*
X109093000Y-118491000D01*
X110363000Y-96266000D02*
X110363000Y-86106000D01*
X109093000Y-96266000D02*
X116713000Y-96266000D01*
X116713000Y-96266000D02*
X116713000Y-86106000D01*
X116713000Y-86106000D02*
X109093000Y-86106000D01*
X109093000Y-86106000D02*
X109093000Y-96266000D01*
X51959200Y-80407200D02*
X51959200Y-83067200D01*
X69799200Y-80407200D02*
X51959200Y-80407200D01*
X69799200Y-83067200D02*
X51959200Y-83067200D01*
X69799200Y-80407200D02*
X69799200Y-83067200D01*
X71069200Y-80407200D02*
X72399200Y-80407200D01*
X72399200Y-80407200D02*
X72399200Y-81737200D01*
X82362000Y-82230000D02*
X82362000Y-80330000D01*
X84262000Y-82230000D02*
X82362000Y-82230000D01*
X84262000Y-80330000D02*
X84262000Y-82230000D01*
X82362000Y-80330000D02*
X84262000Y-80330000D01*
X79822000Y-82230000D02*
X79822000Y-80330000D01*
X81722000Y-82230000D02*
X79822000Y-82230000D01*
X81722000Y-80330000D02*
X81722000Y-82230000D01*
X79822000Y-80330000D02*
X81722000Y-80330000D01*
X95520000Y-88840000D02*
X93870000Y-88840000D01*
X93870000Y-88840000D02*
X93870000Y-94040000D01*
X93870000Y-94040000D02*
X99170000Y-94040000D01*
X99170000Y-94040000D02*
X99170000Y-88840000D01*
X99170000Y-88840000D02*
X97520000Y-88840000D01*
X97520000Y-88840000D02*
G75*
G02*
X95520000Y-88840000I-1000000J0D01*
G01*
X95520000Y-114240000D02*
X93870000Y-114240000D01*
X93870000Y-114240000D02*
X93870000Y-119440000D01*
X93870000Y-119440000D02*
X99170000Y-119440000D01*
X99170000Y-119440000D02*
X99170000Y-114240000D01*
X99170000Y-114240000D02*
X97520000Y-114240000D01*
X97520000Y-114240000D02*
G75*
G02*
X95520000Y-114240000I-1000000J0D01*
G01*
X87360000Y-106740000D02*
X89010000Y-106740000D01*
X89010000Y-106740000D02*
X89010000Y-101540000D01*
X89010000Y-101540000D02*
X83710000Y-101540000D01*
X83710000Y-101540000D02*
X83710000Y-106740000D01*
X83710000Y-106740000D02*
X85360000Y-106740000D01*
X85360000Y-106740000D02*
G75*
G02*
X87360000Y-106740000I1000000J0D01*
G01*
X51840000Y-121370000D02*
X75160000Y-121370000D01*
X49300000Y-114470000D02*
X49300000Y-89040000D01*
X75160000Y-121370000D02*
X75160000Y-89040000D01*
X73040000Y-86910000D02*
X51430000Y-86910000D01*
D14*
G36*
X48260000Y-94615000D02*
G01*
X48260000Y-95885000D01*
X48895000Y-95250000D01*
X48260000Y-94615000D01*
G37*
X48260000Y-94615000D02*
X48260000Y-95885000D01*
X48895000Y-95250000D01*
X48260000Y-94615000D01*
D13*
X49300000Y-114470000D02*
X51840000Y-114470000D01*
X51840000Y-114470000D02*
X51840000Y-121370000D01*
X73030000Y-86910000D02*
G75*
G02*
X75160000Y-89040000I0J-2130000D01*
G01*
X49300000Y-89040000D02*
G75*
G02*
X51430000Y-86910000I2130000J0D01*
G01*
X103572000Y-114995000D02*
X106232000Y-114995000D01*
X103572000Y-109855000D02*
X103572000Y-114995000D01*
X106232000Y-109855000D02*
X106232000Y-114995000D01*
X103572000Y-109855000D02*
X106232000Y-109855000D01*
X103572000Y-108585000D02*
X103572000Y-107255000D01*
X103572000Y-107255000D02*
X104902000Y-107255000D01*
X103572000Y-93786000D02*
X106232000Y-93786000D01*
X103572000Y-91186000D02*
X103572000Y-93786000D01*
X106232000Y-91186000D02*
X106232000Y-93786000D01*
X103572000Y-91186000D02*
X106232000Y-91186000D01*
X103572000Y-89916000D02*
X103572000Y-88586000D01*
X103572000Y-88586000D02*
X104902000Y-88586000D01*
X103600000Y-105764000D02*
X103600000Y-103024000D01*
X103600000Y-103024000D02*
X97060000Y-103024000D01*
X97060000Y-103024000D02*
X97060000Y-105764000D01*
X97060000Y-105764000D02*
X103600000Y-105764000D01*
X104370000Y-104394000D02*
X103600000Y-104394000D01*
X96290000Y-104394000D02*
X97060000Y-104394000D01*
X85190000Y-88170000D02*
X82450000Y-88170000D01*
X82450000Y-88170000D02*
X82450000Y-94710000D01*
X82450000Y-94710000D02*
X85190000Y-94710000D01*
X85190000Y-94710000D02*
X85190000Y-88170000D01*
X83820000Y-87400000D02*
X83820000Y-88170000D01*
X83820000Y-95480000D02*
X83820000Y-94710000D01*
X85190000Y-113570000D02*
X82450000Y-113570000D01*
X82450000Y-113570000D02*
X82450000Y-120110000D01*
X82450000Y-120110000D02*
X85190000Y-120110000D01*
X85190000Y-120110000D02*
X85190000Y-113570000D01*
X83820000Y-112800000D02*
X83820000Y-113570000D01*
X83820000Y-120880000D02*
X83820000Y-120110000D01*
%LPC*%
D15*
X112903000Y-115951000D03*
X112903000Y-110871000D03*
X112903000Y-105791000D03*
X112903000Y-93726000D03*
X112903000Y-88646000D03*
D16*
X53289200Y-81737200D03*
X55829200Y-81737200D03*
X58369200Y-81737200D03*
X60909200Y-81737200D03*
X63449200Y-81737200D03*
X65989200Y-81737200D03*
X68529200Y-81737200D03*
D17*
X71069200Y-81737200D03*
D18*
X83312000Y-81280000D03*
X80772000Y-81280000D03*
D19*
X100330000Y-90170000D03*
X92710000Y-92710000D03*
X100330000Y-92710000D03*
G36*
G01*
X91910000Y-90570000D02*
X91910000Y-89770000D01*
G75*
G02*
X92310000Y-89370000I400000J0D01*
G01*
X93110000Y-89370000D01*
G75*
G02*
X93510000Y-89770000I0J-400000D01*
G01*
X93510000Y-90570000D01*
G75*
G02*
X93110000Y-90970000I-400000J0D01*
G01*
X92310000Y-90970000D01*
G75*
G02*
X91910000Y-90570000I0J400000D01*
G01*
G37*
X100330000Y-115570000D03*
X92710000Y-118110000D03*
X100330000Y-118110000D03*
G36*
G01*
X91910000Y-115970000D02*
X91910000Y-115170000D01*
G75*
G02*
X92310000Y-114770000I400000J0D01*
G01*
X93110000Y-114770000D01*
G75*
G02*
X93510000Y-115170000I0J-400000D01*
G01*
X93510000Y-115970000D01*
G75*
G02*
X93110000Y-116370000I-400000J0D01*
G01*
X92310000Y-116370000D01*
G75*
G02*
X91910000Y-115970000I0J400000D01*
G01*
G37*
X82550000Y-105410000D03*
X90170000Y-102870000D03*
X82550000Y-102870000D03*
G36*
G01*
X90970000Y-105010000D02*
X90970000Y-105810000D01*
G75*
G02*
X90570000Y-106210000I-400000J0D01*
G01*
X89770000Y-106210000D01*
G75*
G02*
X89370000Y-105810000I0J400000D01*
G01*
X89370000Y-105010000D01*
G75*
G02*
X89770000Y-104610000I400000J0D01*
G01*
X90570000Y-104610000D01*
G75*
G02*
X90970000Y-105010000I0J-400000D01*
G01*
G37*
D20*
X73660000Y-95250000D03*
X73660000Y-97790000D03*
X73660000Y-100330000D03*
X73660000Y-102870000D03*
X73660000Y-105410000D03*
X73660000Y-107950000D03*
X73660000Y-110490000D03*
X73660000Y-113030000D03*
X50800000Y-113030000D03*
X50800000Y-110490000D03*
X50800000Y-107950000D03*
X50800000Y-105410000D03*
X50800000Y-102870000D03*
X50800000Y-100330000D03*
G36*
G01*
X49800000Y-95750000D02*
X49800000Y-94750000D01*
G75*
G02*
X50300000Y-94250000I500000J0D01*
G01*
X51300000Y-94250000D01*
G75*
G02*
X51800000Y-94750000I0J-500000D01*
G01*
X51800000Y-95750000D01*
G75*
G02*
X51300000Y-96250000I-500000J0D01*
G01*
X50300000Y-96250000D01*
G75*
G02*
X49800000Y-95750000I0J500000D01*
G01*
G37*
X50800000Y-97790000D03*
D16*
X104902000Y-113665000D03*
X104902000Y-111125000D03*
D17*
X104902000Y-108585000D03*
D16*
X104902000Y-92456000D03*
D17*
X104902000Y-89916000D03*
D19*
X95250000Y-104394000D03*
D21*
X105410000Y-104394000D03*
D19*
X83820000Y-96520000D03*
D21*
X83820000Y-86360000D03*
D19*
X83820000Y-121920000D03*
D21*
X83820000Y-111760000D03*
M02*
