M48
; DRILL file {KiCad 5.1.10} date Fri Sep  3 16:06:52 2021
; FORMAT={-:-/ absolute / inch / decimal}
; #@! TF.CreationDate,2021-09-03T16:06:52+02:00
; #@! TF.GenerationSoftware,Kicad,Pcbnew,5.1.10
; #@! TF.FileFunction,Plated,1,2,PTH
FMAT,2
INCH
T1C0.0315
T2C0.0394
T3C0.0512
%
G90
G05
T1
X3.25Y-4.05
X3.25Y-4.15
X3.3Y-3.4
X3.3Y-3.8
X3.3Y-4.4
X3.3Y-4.8
X3.55Y-4.05
X3.55Y-4.15
X3.65Y-3.55
X3.65Y-3.65
X3.65Y-4.55
X3.65Y-4.65
X3.75Y-4.11
X3.95Y-3.55
X3.95Y-3.65
X3.95Y-4.55
X3.95Y-4.65
X4.15Y-4.11
T2
X2.0Y-3.75
X2.0Y-3.85
X2.0Y-3.95
X2.0Y-4.05
X2.0Y-4.15
X2.0Y-4.25
X2.0Y-4.35
X2.0Y-4.45
X2.9Y-3.75
X2.9Y-3.85
X2.9Y-3.95
X2.9Y-4.05
X2.9Y-4.15
X2.9Y-4.25
X2.9Y-4.35
X2.9Y-4.45
T3
X4.55Y-3.35
X4.55Y-3.6
X4.55Y-4.15
X4.55Y-4.4
X4.55Y-4.65
T0
M30
