%TF.GenerationSoftware,KiCad,Pcbnew,5.1.10*%
%TF.CreationDate,2021-10-24T13:16:46+02:00*%
%TF.ProjectId,PCB,5043422e-6b69-4636-9164-5f7063625858,1.0*%
%TF.SameCoordinates,Original*%
%TF.FileFunction,Soldermask,Bot*%
%TF.FilePolarity,Negative*%
%FSLAX46Y46*%
G04 Gerber Fmt 4.6, Leading zero omitted, Abs format (unit mm)*
G04 Created by KiCad (PCBNEW 5.1.10) date 2021-10-24 13:16:46*
%MOMM*%
%LPD*%
G01*
G04 APERTURE LIST*
%ADD10O,1.700000X1.700000*%
%ADD11R,1.700000X1.700000*%
%ADD12C,3.000000*%
%ADD13R,3.000000X3.000000*%
%ADD14O,2.000000X1.600000*%
%ADD15R,2.000000X2.000000*%
%ADD16O,1.600000X1.600000*%
%ADD17R,1.600000X1.600000*%
%ADD18C,1.600000*%
G04 APERTURE END LIST*
D10*
X104902000Y-107950000D03*
X104902000Y-110490000D03*
D11*
X104902000Y-113030000D03*
D10*
X104902000Y-89916000D03*
D11*
X104902000Y-92456000D03*
D12*
X113030000Y-105410000D03*
X113030000Y-110490000D03*
D13*
X113030000Y-115570000D03*
D12*
X113030000Y-88646000D03*
D13*
X113030000Y-93726000D03*
D10*
X55880000Y-81534000D03*
X58420000Y-81534000D03*
X60960000Y-81534000D03*
X63500000Y-81534000D03*
X66040000Y-81534000D03*
D11*
X68580000Y-81534000D03*
D14*
X73660000Y-95250000D03*
X73660000Y-97790000D03*
X73660000Y-100330000D03*
X73660000Y-102870000D03*
X73660000Y-105410000D03*
X73660000Y-107950000D03*
X73660000Y-110490000D03*
X73660000Y-113030000D03*
X50800000Y-113030000D03*
X50800000Y-110490000D03*
X50800000Y-107950000D03*
X50800000Y-105410000D03*
X50800000Y-102870000D03*
X50800000Y-100330000D03*
D15*
X50800000Y-95250000D03*
D14*
X50800000Y-97790000D03*
D16*
X100330000Y-90170000D03*
X92710000Y-92710000D03*
X100330000Y-92710000D03*
D17*
X92710000Y-90170000D03*
D16*
X100330000Y-115570000D03*
X92710000Y-118110000D03*
X100330000Y-118110000D03*
D17*
X92710000Y-115570000D03*
D16*
X82550000Y-105410000D03*
X90170000Y-102870000D03*
X82550000Y-102870000D03*
D17*
X90170000Y-105410000D03*
D16*
X95250000Y-104394000D03*
D18*
X105410000Y-104394000D03*
D16*
X83820000Y-96520000D03*
D18*
X83820000Y-86360000D03*
D16*
X83820000Y-121920000D03*
D18*
X83820000Y-111760000D03*
M02*
