%TF.GenerationSoftware,KiCad,Pcbnew,5.1.10*%
%TF.CreationDate,2021-08-14T17:36:08+02:00*%
%TF.ProjectId,PCB,5043422e-6b69-4636-9164-5f7063625858,1.0*%
%TF.SameCoordinates,Original*%
%TF.FileFunction,Legend,Top*%
%TF.FilePolarity,Positive*%
%FSLAX46Y46*%
G04 Gerber Fmt 4.6, Leading zero omitted, Abs format (unit mm)*
G04 Created by KiCad (PCBNEW 5.1.10) date 2021-08-14 17:36:08*
%MOMM*%
%LPD*%
G01*
G04 APERTURE LIST*
%ADD10C,0.300000*%
%ADD11C,0.175000*%
%ADD12C,0.200000*%
%ADD13C,0.120000*%
%ADD14C,0.150000*%
G04 APERTURE END LIST*
D10*
X99258571Y-103572571D02*
X98544285Y-103572571D01*
X98472857Y-104286857D01*
X98544285Y-104215428D01*
X98687142Y-104144000D01*
X99044285Y-104144000D01*
X99187142Y-104215428D01*
X99258571Y-104286857D01*
X99330000Y-104429714D01*
X99330000Y-104786857D01*
X99258571Y-104929714D01*
X99187142Y-105001142D01*
X99044285Y-105072571D01*
X98687142Y-105072571D01*
X98544285Y-105001142D01*
X98472857Y-104929714D01*
X100758571Y-105072571D02*
X99901428Y-105072571D01*
X100330000Y-105072571D02*
X100330000Y-103572571D01*
X100187142Y-103786857D01*
X100044285Y-103929714D01*
X99901428Y-104001142D01*
X101687142Y-103572571D02*
X101830000Y-103572571D01*
X101972857Y-103644000D01*
X102044285Y-103715428D01*
X102115714Y-103858285D01*
X102187142Y-104144000D01*
X102187142Y-104501142D01*
X102115714Y-104786857D01*
X102044285Y-104929714D01*
X101972857Y-105001142D01*
X101830000Y-105072571D01*
X101687142Y-105072571D01*
X101544285Y-105001142D01*
X101472857Y-104929714D01*
X101401428Y-104786857D01*
X101330000Y-104501142D01*
X101330000Y-104144000D01*
X101401428Y-103858285D01*
X101472857Y-103715428D01*
X101544285Y-103644000D01*
X101687142Y-103572571D01*
X83125571Y-117911428D02*
X83125571Y-118625714D01*
X83839857Y-118697142D01*
X83768428Y-118625714D01*
X83697000Y-118482857D01*
X83697000Y-118125714D01*
X83768428Y-117982857D01*
X83839857Y-117911428D01*
X83982714Y-117840000D01*
X84339857Y-117840000D01*
X84482714Y-117911428D01*
X84554142Y-117982857D01*
X84625571Y-118125714D01*
X84625571Y-118482857D01*
X84554142Y-118625714D01*
X84482714Y-118697142D01*
X84625571Y-116411428D02*
X84625571Y-117268571D01*
X84625571Y-116840000D02*
X83125571Y-116840000D01*
X83339857Y-116982857D01*
X83482714Y-117125714D01*
X83554142Y-117268571D01*
X83125571Y-115482857D02*
X83125571Y-115340000D01*
X83197000Y-115197142D01*
X83268428Y-115125714D01*
X83411285Y-115054285D01*
X83697000Y-114982857D01*
X84054142Y-114982857D01*
X84339857Y-115054285D01*
X84482714Y-115125714D01*
X84554142Y-115197142D01*
X84625571Y-115340000D01*
X84625571Y-115482857D01*
X84554142Y-115625714D01*
X84482714Y-115697142D01*
X84339857Y-115768571D01*
X84054142Y-115840000D01*
X83697000Y-115840000D01*
X83411285Y-115768571D01*
X83268428Y-115697142D01*
X83197000Y-115625714D01*
X83125571Y-115482857D01*
X83125571Y-92511428D02*
X83125571Y-93225714D01*
X83839857Y-93297142D01*
X83768428Y-93225714D01*
X83697000Y-93082857D01*
X83697000Y-92725714D01*
X83768428Y-92582857D01*
X83839857Y-92511428D01*
X83982714Y-92440000D01*
X84339857Y-92440000D01*
X84482714Y-92511428D01*
X84554142Y-92582857D01*
X84625571Y-92725714D01*
X84625571Y-93082857D01*
X84554142Y-93225714D01*
X84482714Y-93297142D01*
X84625571Y-91011428D02*
X84625571Y-91868571D01*
X84625571Y-91440000D02*
X83125571Y-91440000D01*
X83339857Y-91582857D01*
X83482714Y-91725714D01*
X83554142Y-91868571D01*
X83125571Y-90082857D02*
X83125571Y-89940000D01*
X83197000Y-89797142D01*
X83268428Y-89725714D01*
X83411285Y-89654285D01*
X83697000Y-89582857D01*
X84054142Y-89582857D01*
X84339857Y-89654285D01*
X84482714Y-89725714D01*
X84554142Y-89797142D01*
X84625571Y-89940000D01*
X84625571Y-90082857D01*
X84554142Y-90225714D01*
X84482714Y-90297142D01*
X84339857Y-90368571D01*
X84054142Y-90440000D01*
X83697000Y-90440000D01*
X83411285Y-90368571D01*
X83268428Y-90297142D01*
X83197000Y-90225714D01*
X83125571Y-90082857D01*
D11*
X45998000Y-102392500D02*
X46698000Y-102392500D01*
X46564666Y-103440666D02*
X46331333Y-103107333D01*
X46164666Y-103440666D02*
X46164666Y-102740666D01*
X46431333Y-102740666D01*
X46498000Y-102774000D01*
X46531333Y-102807333D01*
X46564666Y-102874000D01*
X46564666Y-102974000D01*
X46531333Y-103040666D01*
X46498000Y-103074000D01*
X46431333Y-103107333D01*
X46164666Y-103107333D01*
X46698000Y-102392500D02*
X47298000Y-102392500D01*
X47131333Y-103407333D02*
X47064666Y-103440666D01*
X46931333Y-103440666D01*
X46864666Y-103407333D01*
X46831333Y-103340666D01*
X46831333Y-103074000D01*
X46864666Y-103007333D01*
X46931333Y-102974000D01*
X47064666Y-102974000D01*
X47131333Y-103007333D01*
X47164666Y-103074000D01*
X47164666Y-103140666D01*
X46831333Y-103207333D01*
X47298000Y-102392500D02*
X47631333Y-102392500D01*
X47464666Y-103440666D02*
X47464666Y-102974000D01*
X47464666Y-102740666D02*
X47431333Y-102774000D01*
X47464666Y-102807333D01*
X47498000Y-102774000D01*
X47464666Y-102740666D01*
X47464666Y-102807333D01*
X47631333Y-102392500D02*
X48264666Y-102392500D01*
X47798000Y-102974000D02*
X47798000Y-103440666D01*
X47798000Y-103040666D02*
X47831333Y-103007333D01*
X47898000Y-102974000D01*
X47998000Y-102974000D01*
X48064666Y-103007333D01*
X48098000Y-103074000D01*
X48098000Y-103440666D01*
X48264666Y-102392500D02*
X48598000Y-102392500D01*
X48431333Y-103440666D02*
X48431333Y-102974000D01*
X48431333Y-102740666D02*
X48398000Y-102774000D01*
X48431333Y-102807333D01*
X48464666Y-102774000D01*
X48431333Y-102740666D01*
X48431333Y-102807333D01*
X48598000Y-102392500D02*
X48998000Y-102392500D01*
X48664666Y-102974000D02*
X48931333Y-102974000D01*
X48764666Y-102740666D02*
X48764666Y-103340666D01*
X48798000Y-103407333D01*
X48864666Y-103440666D01*
X48931333Y-103440666D01*
D12*
X75596857Y-107224000D02*
X76358761Y-107224000D01*
X75692095Y-107656380D02*
X76263523Y-107656380D01*
X75977809Y-108656380D02*
X75977809Y-107656380D01*
X76358761Y-107224000D02*
X77311142Y-107224000D01*
X76501619Y-107656380D02*
X77168285Y-108656380D01*
X77168285Y-107656380D02*
X76501619Y-108656380D01*
X75477809Y-104684000D02*
X76477809Y-104684000D01*
X76287333Y-106116380D02*
X75954000Y-105640190D01*
X75715904Y-106116380D02*
X75715904Y-105116380D01*
X76096857Y-105116380D01*
X76192095Y-105164000D01*
X76239714Y-105211619D01*
X76287333Y-105306857D01*
X76287333Y-105449714D01*
X76239714Y-105544952D01*
X76192095Y-105592571D01*
X76096857Y-105640190D01*
X75715904Y-105640190D01*
X76477809Y-104684000D02*
X77430190Y-104684000D01*
X76620666Y-105116380D02*
X77287333Y-106116380D01*
X77287333Y-105116380D02*
X76620666Y-106116380D01*
X75517714Y-102144000D02*
X76422476Y-102144000D01*
X75755809Y-103052571D02*
X76089142Y-103052571D01*
X76232000Y-103576380D02*
X75755809Y-103576380D01*
X75755809Y-102576380D01*
X76232000Y-102576380D01*
X76422476Y-102144000D02*
X77327238Y-102144000D01*
X76660571Y-102909714D02*
X76660571Y-103576380D01*
X76660571Y-103004952D02*
X76708190Y-102957333D01*
X76803428Y-102909714D01*
X76946285Y-102909714D01*
X77041523Y-102957333D01*
X77089142Y-103052571D01*
X77089142Y-103576380D01*
X77327238Y-102144000D02*
X78232000Y-102144000D01*
X77993904Y-103576380D02*
X77993904Y-103052571D01*
X77946285Y-102957333D01*
X77851047Y-102909714D01*
X77660571Y-102909714D01*
X77565333Y-102957333D01*
X77993904Y-103528761D02*
X77898666Y-103576380D01*
X77660571Y-103576380D01*
X77565333Y-103528761D01*
X77517714Y-103433523D01*
X77517714Y-103338285D01*
X77565333Y-103243047D01*
X77660571Y-103195428D01*
X77898666Y-103195428D01*
X77993904Y-103147809D01*
X78232000Y-102144000D02*
X78993904Y-102144000D01*
X78232000Y-103671619D02*
X78993904Y-103671619D01*
X78993904Y-102144000D02*
X79993904Y-102144000D01*
X79803428Y-103576380D02*
X79470095Y-103100190D01*
X79232000Y-103576380D02*
X79232000Y-102576380D01*
X79612952Y-102576380D01*
X79708190Y-102624000D01*
X79755809Y-102671619D01*
X79803428Y-102766857D01*
X79803428Y-102909714D01*
X79755809Y-103004952D01*
X79708190Y-103052571D01*
X79612952Y-103100190D01*
X79232000Y-103100190D01*
X79993904Y-102144000D02*
X80946285Y-102144000D01*
X80136761Y-102576380D02*
X80803428Y-103576380D01*
X80803428Y-102576380D02*
X80136761Y-103576380D01*
X76200095Y-110244000D02*
X76104857Y-110196380D01*
X75962000Y-110196380D01*
X75819142Y-110244000D01*
X75723904Y-110339238D01*
X75676285Y-110434476D01*
X75628666Y-110624952D01*
X75628666Y-110767809D01*
X75676285Y-110958285D01*
X75723904Y-111053523D01*
X75819142Y-111148761D01*
X75962000Y-111196380D01*
X76057238Y-111196380D01*
X76200095Y-111148761D01*
X76247714Y-111101142D01*
X76247714Y-110767809D01*
X76057238Y-110767809D01*
X76676285Y-111196380D02*
X76676285Y-110196380D01*
X77247714Y-111196380D01*
X77247714Y-110196380D01*
X77723904Y-111196380D02*
X77723904Y-110196380D01*
X77962000Y-110196380D01*
X78104857Y-110244000D01*
X78200095Y-110339238D01*
X78247714Y-110434476D01*
X78295333Y-110624952D01*
X78295333Y-110767809D01*
X78247714Y-110958285D01*
X78200095Y-111053523D01*
X78104857Y-111148761D01*
X77962000Y-111196380D01*
X77723904Y-111196380D01*
X46021809Y-112736380D02*
X46640857Y-112736380D01*
X46307523Y-113117333D01*
X46450380Y-113117333D01*
X46545619Y-113164952D01*
X46593238Y-113212571D01*
X46640857Y-113307809D01*
X46640857Y-113545904D01*
X46593238Y-113641142D01*
X46545619Y-113688761D01*
X46450380Y-113736380D01*
X46164666Y-113736380D01*
X46069428Y-113688761D01*
X46021809Y-113641142D01*
X47069428Y-113641142D02*
X47117047Y-113688761D01*
X47069428Y-113736380D01*
X47021809Y-113688761D01*
X47069428Y-113641142D01*
X47069428Y-113736380D01*
X47450380Y-112736380D02*
X48069428Y-112736380D01*
X47736095Y-113117333D01*
X47878952Y-113117333D01*
X47974190Y-113164952D01*
X48021809Y-113212571D01*
X48069428Y-113307809D01*
X48069428Y-113545904D01*
X48021809Y-113641142D01*
X47974190Y-113688761D01*
X47878952Y-113736380D01*
X47593238Y-113736380D01*
X47498000Y-113688761D01*
X47450380Y-113641142D01*
X48355142Y-112736380D02*
X48688476Y-113736380D01*
X49021809Y-112736380D01*
D13*
%TO.C,GND_In*%
X117170781Y-91440000D02*
G75*
G03*
X117170781Y-91440000I-1600781J0D01*
G01*
%TO.C,5V_Heater*%
X117170781Y-105410000D02*
G75*
G03*
X117170781Y-105410000I-1600781J0D01*
G01*
%TO.C,GND_Heater*%
X117170781Y-118110000D02*
G75*
G03*
X117170781Y-118110000I-1600781J0D01*
G01*
%TO.C,Serial*%
X117170781Y-111760000D02*
G75*
G03*
X117170781Y-111760000I-1600781J0D01*
G01*
%TO.C,3.3V_In*%
X117170781Y-85090000D02*
G75*
G03*
X117170781Y-85090000I-1600781J0D01*
G01*
%TO.C,U4*%
X51840000Y-114470000D02*
X51840000Y-121370000D01*
X49300000Y-114470000D02*
X51840000Y-114470000D01*
D14*
G36*
X48260000Y-94615000D02*
G01*
X48260000Y-95885000D01*
X48895000Y-95250000D01*
X48260000Y-94615000D01*
G37*
X48260000Y-94615000D02*
X48260000Y-95885000D01*
X48895000Y-95250000D01*
X48260000Y-94615000D01*
D13*
X73040000Y-86910000D02*
X51430000Y-86910000D01*
X75160000Y-121370000D02*
X75160000Y-89040000D01*
X49300000Y-114470000D02*
X49300000Y-89040000D01*
X51840000Y-121370000D02*
X75160000Y-121370000D01*
X73030000Y-86910000D02*
G75*
G02*
X75160000Y-89040000I0J-2130000D01*
G01*
X49300000Y-89040000D02*
G75*
G02*
X51430000Y-86910000I2130000J0D01*
G01*
%TO.C,U3*%
X99170000Y-88840000D02*
X97520000Y-88840000D01*
X99170000Y-94040000D02*
X99170000Y-88840000D01*
X93870000Y-94040000D02*
X99170000Y-94040000D01*
X93870000Y-88840000D02*
X93870000Y-94040000D01*
X95520000Y-88840000D02*
X93870000Y-88840000D01*
X97520000Y-88840000D02*
G75*
G02*
X95520000Y-88840000I-1000000J0D01*
G01*
%TO.C,U2*%
X99170000Y-114240000D02*
X97520000Y-114240000D01*
X99170000Y-119440000D02*
X99170000Y-114240000D01*
X93870000Y-119440000D02*
X99170000Y-119440000D01*
X93870000Y-114240000D02*
X93870000Y-119440000D01*
X95520000Y-114240000D02*
X93870000Y-114240000D01*
X97520000Y-114240000D02*
G75*
G02*
X95520000Y-114240000I-1000000J0D01*
G01*
%TO.C,U1*%
X83710000Y-106740000D02*
X85360000Y-106740000D01*
X83710000Y-101540000D02*
X83710000Y-106740000D01*
X89010000Y-101540000D02*
X83710000Y-101540000D01*
X89010000Y-106740000D02*
X89010000Y-101540000D01*
X87360000Y-106740000D02*
X89010000Y-106740000D01*
X85360000Y-106740000D02*
G75*
G02*
X87360000Y-106740000I1000000J0D01*
G01*
%TO.C,R3*%
X96290000Y-104394000D02*
X97060000Y-104394000D01*
X104370000Y-104394000D02*
X103600000Y-104394000D01*
X97060000Y-105764000D02*
X103600000Y-105764000D01*
X97060000Y-103024000D02*
X97060000Y-105764000D01*
X103600000Y-103024000D02*
X97060000Y-103024000D01*
X103600000Y-105764000D02*
X103600000Y-103024000D01*
%TO.C,R2*%
X83820000Y-95480000D02*
X83820000Y-94710000D01*
X83820000Y-87400000D02*
X83820000Y-88170000D01*
X85190000Y-94710000D02*
X85190000Y-88170000D01*
X82450000Y-94710000D02*
X85190000Y-94710000D01*
X82450000Y-88170000D02*
X82450000Y-94710000D01*
X85190000Y-88170000D02*
X82450000Y-88170000D01*
%TO.C,R1*%
X83820000Y-120880000D02*
X83820000Y-120110000D01*
X83820000Y-112800000D02*
X83820000Y-113570000D01*
X85190000Y-120110000D02*
X85190000Y-113570000D01*
X82450000Y-120110000D02*
X85190000Y-120110000D01*
X82450000Y-113570000D02*
X82450000Y-120110000D01*
X85190000Y-113570000D02*
X82450000Y-113570000D01*
%TO.C,GND_In*%
D14*
X113736666Y-93340000D02*
X113641428Y-93292380D01*
X113498571Y-93292380D01*
X113355714Y-93340000D01*
X113260476Y-93435238D01*
X113212857Y-93530476D01*
X113165238Y-93720952D01*
X113165238Y-93863809D01*
X113212857Y-94054285D01*
X113260476Y-94149523D01*
X113355714Y-94244761D01*
X113498571Y-94292380D01*
X113593809Y-94292380D01*
X113736666Y-94244761D01*
X113784285Y-94197142D01*
X113784285Y-93863809D01*
X113593809Y-93863809D01*
X114212857Y-94292380D02*
X114212857Y-93292380D01*
X114784285Y-94292380D01*
X114784285Y-93292380D01*
X115260476Y-94292380D02*
X115260476Y-93292380D01*
X115498571Y-93292380D01*
X115641428Y-93340000D01*
X115736666Y-93435238D01*
X115784285Y-93530476D01*
X115831904Y-93720952D01*
X115831904Y-93863809D01*
X115784285Y-94054285D01*
X115736666Y-94149523D01*
X115641428Y-94244761D01*
X115498571Y-94292380D01*
X115260476Y-94292380D01*
X116022380Y-94387619D02*
X116784285Y-94387619D01*
X117022380Y-94292380D02*
X117022380Y-93292380D01*
X117498571Y-93625714D02*
X117498571Y-94292380D01*
X117498571Y-93720952D02*
X117546190Y-93673333D01*
X117641428Y-93625714D01*
X117784285Y-93625714D01*
X117879523Y-93673333D01*
X117927142Y-93768571D01*
X117927142Y-94292380D01*
%TO.C,5V_Heater*%
X112570000Y-107262380D02*
X112093809Y-107262380D01*
X112046190Y-107738571D01*
X112093809Y-107690952D01*
X112189047Y-107643333D01*
X112427142Y-107643333D01*
X112522380Y-107690952D01*
X112570000Y-107738571D01*
X112617619Y-107833809D01*
X112617619Y-108071904D01*
X112570000Y-108167142D01*
X112522380Y-108214761D01*
X112427142Y-108262380D01*
X112189047Y-108262380D01*
X112093809Y-108214761D01*
X112046190Y-108167142D01*
X112903333Y-107262380D02*
X113236666Y-108262380D01*
X113570000Y-107262380D01*
X113665238Y-108357619D02*
X114427142Y-108357619D01*
X114665238Y-108262380D02*
X114665238Y-107262380D01*
X114665238Y-107738571D02*
X115236666Y-107738571D01*
X115236666Y-108262380D02*
X115236666Y-107262380D01*
X116093809Y-108214761D02*
X115998571Y-108262380D01*
X115808095Y-108262380D01*
X115712857Y-108214761D01*
X115665238Y-108119523D01*
X115665238Y-107738571D01*
X115712857Y-107643333D01*
X115808095Y-107595714D01*
X115998571Y-107595714D01*
X116093809Y-107643333D01*
X116141428Y-107738571D01*
X116141428Y-107833809D01*
X115665238Y-107929047D01*
X116998571Y-108262380D02*
X116998571Y-107738571D01*
X116950952Y-107643333D01*
X116855714Y-107595714D01*
X116665238Y-107595714D01*
X116570000Y-107643333D01*
X116998571Y-108214761D02*
X116903333Y-108262380D01*
X116665238Y-108262380D01*
X116570000Y-108214761D01*
X116522380Y-108119523D01*
X116522380Y-108024285D01*
X116570000Y-107929047D01*
X116665238Y-107881428D01*
X116903333Y-107881428D01*
X116998571Y-107833809D01*
X117331904Y-107595714D02*
X117712857Y-107595714D01*
X117474761Y-107262380D02*
X117474761Y-108119523D01*
X117522380Y-108214761D01*
X117617619Y-108262380D01*
X117712857Y-108262380D01*
X118427142Y-108214761D02*
X118331904Y-108262380D01*
X118141428Y-108262380D01*
X118046190Y-108214761D01*
X117998571Y-108119523D01*
X117998571Y-107738571D01*
X118046190Y-107643333D01*
X118141428Y-107595714D01*
X118331904Y-107595714D01*
X118427142Y-107643333D01*
X118474761Y-107738571D01*
X118474761Y-107833809D01*
X117998571Y-107929047D01*
X118903333Y-108262380D02*
X118903333Y-107595714D01*
X118903333Y-107786190D02*
X118950952Y-107690952D01*
X118998571Y-107643333D01*
X119093809Y-107595714D01*
X119189047Y-107595714D01*
%TO.C,GND_Heater*%
X111998571Y-120010000D02*
X111903333Y-119962380D01*
X111760476Y-119962380D01*
X111617619Y-120010000D01*
X111522380Y-120105238D01*
X111474761Y-120200476D01*
X111427142Y-120390952D01*
X111427142Y-120533809D01*
X111474761Y-120724285D01*
X111522380Y-120819523D01*
X111617619Y-120914761D01*
X111760476Y-120962380D01*
X111855714Y-120962380D01*
X111998571Y-120914761D01*
X112046190Y-120867142D01*
X112046190Y-120533809D01*
X111855714Y-120533809D01*
X112474761Y-120962380D02*
X112474761Y-119962380D01*
X113046190Y-120962380D01*
X113046190Y-119962380D01*
X113522380Y-120962380D02*
X113522380Y-119962380D01*
X113760476Y-119962380D01*
X113903333Y-120010000D01*
X113998571Y-120105238D01*
X114046190Y-120200476D01*
X114093809Y-120390952D01*
X114093809Y-120533809D01*
X114046190Y-120724285D01*
X113998571Y-120819523D01*
X113903333Y-120914761D01*
X113760476Y-120962380D01*
X113522380Y-120962380D01*
X114284285Y-121057619D02*
X115046190Y-121057619D01*
X115284285Y-120962380D02*
X115284285Y-119962380D01*
X115284285Y-120438571D02*
X115855714Y-120438571D01*
X115855714Y-120962380D02*
X115855714Y-119962380D01*
X116712857Y-120914761D02*
X116617619Y-120962380D01*
X116427142Y-120962380D01*
X116331904Y-120914761D01*
X116284285Y-120819523D01*
X116284285Y-120438571D01*
X116331904Y-120343333D01*
X116427142Y-120295714D01*
X116617619Y-120295714D01*
X116712857Y-120343333D01*
X116760476Y-120438571D01*
X116760476Y-120533809D01*
X116284285Y-120629047D01*
X117617619Y-120962380D02*
X117617619Y-120438571D01*
X117570000Y-120343333D01*
X117474761Y-120295714D01*
X117284285Y-120295714D01*
X117189047Y-120343333D01*
X117617619Y-120914761D02*
X117522380Y-120962380D01*
X117284285Y-120962380D01*
X117189047Y-120914761D01*
X117141428Y-120819523D01*
X117141428Y-120724285D01*
X117189047Y-120629047D01*
X117284285Y-120581428D01*
X117522380Y-120581428D01*
X117617619Y-120533809D01*
X117950952Y-120295714D02*
X118331904Y-120295714D01*
X118093809Y-119962380D02*
X118093809Y-120819523D01*
X118141428Y-120914761D01*
X118236666Y-120962380D01*
X118331904Y-120962380D01*
X119046190Y-120914761D02*
X118950952Y-120962380D01*
X118760476Y-120962380D01*
X118665238Y-120914761D01*
X118617619Y-120819523D01*
X118617619Y-120438571D01*
X118665238Y-120343333D01*
X118760476Y-120295714D01*
X118950952Y-120295714D01*
X119046190Y-120343333D01*
X119093809Y-120438571D01*
X119093809Y-120533809D01*
X118617619Y-120629047D01*
X119522380Y-120962380D02*
X119522380Y-120295714D01*
X119522380Y-120486190D02*
X119570000Y-120390952D01*
X119617619Y-120343333D01*
X119712857Y-120295714D01*
X119808095Y-120295714D01*
%TO.C,Serial*%
X113593809Y-114564761D02*
X113736666Y-114612380D01*
X113974761Y-114612380D01*
X114070000Y-114564761D01*
X114117619Y-114517142D01*
X114165238Y-114421904D01*
X114165238Y-114326666D01*
X114117619Y-114231428D01*
X114070000Y-114183809D01*
X113974761Y-114136190D01*
X113784285Y-114088571D01*
X113689047Y-114040952D01*
X113641428Y-113993333D01*
X113593809Y-113898095D01*
X113593809Y-113802857D01*
X113641428Y-113707619D01*
X113689047Y-113660000D01*
X113784285Y-113612380D01*
X114022380Y-113612380D01*
X114165238Y-113660000D01*
X114974761Y-114564761D02*
X114879523Y-114612380D01*
X114689047Y-114612380D01*
X114593809Y-114564761D01*
X114546190Y-114469523D01*
X114546190Y-114088571D01*
X114593809Y-113993333D01*
X114689047Y-113945714D01*
X114879523Y-113945714D01*
X114974761Y-113993333D01*
X115022380Y-114088571D01*
X115022380Y-114183809D01*
X114546190Y-114279047D01*
X115450952Y-114612380D02*
X115450952Y-113945714D01*
X115450952Y-114136190D02*
X115498571Y-114040952D01*
X115546190Y-113993333D01*
X115641428Y-113945714D01*
X115736666Y-113945714D01*
X116070000Y-114612380D02*
X116070000Y-113945714D01*
X116070000Y-113612380D02*
X116022380Y-113660000D01*
X116070000Y-113707619D01*
X116117619Y-113660000D01*
X116070000Y-113612380D01*
X116070000Y-113707619D01*
X116974761Y-114612380D02*
X116974761Y-114088571D01*
X116927142Y-113993333D01*
X116831904Y-113945714D01*
X116641428Y-113945714D01*
X116546190Y-113993333D01*
X116974761Y-114564761D02*
X116879523Y-114612380D01*
X116641428Y-114612380D01*
X116546190Y-114564761D01*
X116498571Y-114469523D01*
X116498571Y-114374285D01*
X116546190Y-114279047D01*
X116641428Y-114231428D01*
X116879523Y-114231428D01*
X116974761Y-114183809D01*
X117593809Y-114612380D02*
X117498571Y-114564761D01*
X117450952Y-114469523D01*
X117450952Y-113612380D01*
%TO.C,3.3V_In*%
X113022380Y-86942380D02*
X113641428Y-86942380D01*
X113308095Y-87323333D01*
X113450952Y-87323333D01*
X113546190Y-87370952D01*
X113593809Y-87418571D01*
X113641428Y-87513809D01*
X113641428Y-87751904D01*
X113593809Y-87847142D01*
X113546190Y-87894761D01*
X113450952Y-87942380D01*
X113165238Y-87942380D01*
X113070000Y-87894761D01*
X113022380Y-87847142D01*
X114070000Y-87847142D02*
X114117619Y-87894761D01*
X114070000Y-87942380D01*
X114022380Y-87894761D01*
X114070000Y-87847142D01*
X114070000Y-87942380D01*
X114450952Y-86942380D02*
X115070000Y-86942380D01*
X114736666Y-87323333D01*
X114879523Y-87323333D01*
X114974761Y-87370952D01*
X115022380Y-87418571D01*
X115070000Y-87513809D01*
X115070000Y-87751904D01*
X115022380Y-87847142D01*
X114974761Y-87894761D01*
X114879523Y-87942380D01*
X114593809Y-87942380D01*
X114498571Y-87894761D01*
X114450952Y-87847142D01*
X115355714Y-86942380D02*
X115689047Y-87942380D01*
X116022380Y-86942380D01*
X116117619Y-88037619D02*
X116879523Y-88037619D01*
X117117619Y-87942380D02*
X117117619Y-86942380D01*
X117593809Y-87275714D02*
X117593809Y-87942380D01*
X117593809Y-87370952D02*
X117641428Y-87323333D01*
X117736666Y-87275714D01*
X117879523Y-87275714D01*
X117974761Y-87323333D01*
X118022380Y-87418571D01*
X118022380Y-87942380D01*
%TO.C,U4*%
X72038095Y-121702380D02*
X72038095Y-122511904D01*
X72085714Y-122607142D01*
X72133333Y-122654761D01*
X72228571Y-122702380D01*
X72419047Y-122702380D01*
X72514285Y-122654761D01*
X72561904Y-122607142D01*
X72609523Y-122511904D01*
X72609523Y-121702380D01*
X73514285Y-122035714D02*
X73514285Y-122702380D01*
X73276190Y-121654761D02*
X73038095Y-122369047D01*
X73657142Y-122369047D01*
%TO.C,U3*%
X95758095Y-87292380D02*
X95758095Y-88101904D01*
X95805714Y-88197142D01*
X95853333Y-88244761D01*
X95948571Y-88292380D01*
X96139047Y-88292380D01*
X96234285Y-88244761D01*
X96281904Y-88197142D01*
X96329523Y-88101904D01*
X96329523Y-87292380D01*
X96710476Y-87292380D02*
X97329523Y-87292380D01*
X96996190Y-87673333D01*
X97139047Y-87673333D01*
X97234285Y-87720952D01*
X97281904Y-87768571D01*
X97329523Y-87863809D01*
X97329523Y-88101904D01*
X97281904Y-88197142D01*
X97234285Y-88244761D01*
X97139047Y-88292380D01*
X96853333Y-88292380D01*
X96758095Y-88244761D01*
X96710476Y-88197142D01*
%TO.C,U2*%
X95758095Y-112692380D02*
X95758095Y-113501904D01*
X95805714Y-113597142D01*
X95853333Y-113644761D01*
X95948571Y-113692380D01*
X96139047Y-113692380D01*
X96234285Y-113644761D01*
X96281904Y-113597142D01*
X96329523Y-113501904D01*
X96329523Y-112692380D01*
X96758095Y-112787619D02*
X96805714Y-112740000D01*
X96900952Y-112692380D01*
X97139047Y-112692380D01*
X97234285Y-112740000D01*
X97281904Y-112787619D01*
X97329523Y-112882857D01*
X97329523Y-112978095D01*
X97281904Y-113120952D01*
X96710476Y-113692380D01*
X97329523Y-113692380D01*
%TO.C,U1*%
X85598095Y-107192380D02*
X85598095Y-108001904D01*
X85645714Y-108097142D01*
X85693333Y-108144761D01*
X85788571Y-108192380D01*
X85979047Y-108192380D01*
X86074285Y-108144761D01*
X86121904Y-108097142D01*
X86169523Y-108001904D01*
X86169523Y-107192380D01*
X87169523Y-108192380D02*
X86598095Y-108192380D01*
X86883809Y-108192380D02*
X86883809Y-107192380D01*
X86788571Y-107335238D01*
X86693333Y-107430476D01*
X86598095Y-107478095D01*
%TO.C,R3*%
X100163333Y-107216380D02*
X99830000Y-106740190D01*
X99591904Y-107216380D02*
X99591904Y-106216380D01*
X99972857Y-106216380D01*
X100068095Y-106264000D01*
X100115714Y-106311619D01*
X100163333Y-106406857D01*
X100163333Y-106549714D01*
X100115714Y-106644952D01*
X100068095Y-106692571D01*
X99972857Y-106740190D01*
X99591904Y-106740190D01*
X100496666Y-106216380D02*
X101115714Y-106216380D01*
X100782380Y-106597333D01*
X100925238Y-106597333D01*
X101020476Y-106644952D01*
X101068095Y-106692571D01*
X101115714Y-106787809D01*
X101115714Y-107025904D01*
X101068095Y-107121142D01*
X101020476Y-107168761D01*
X100925238Y-107216380D01*
X100639523Y-107216380D01*
X100544285Y-107168761D01*
X100496666Y-107121142D01*
%TO.C,R2*%
X86642380Y-91606666D02*
X86166190Y-91940000D01*
X86642380Y-92178095D02*
X85642380Y-92178095D01*
X85642380Y-91797142D01*
X85690000Y-91701904D01*
X85737619Y-91654285D01*
X85832857Y-91606666D01*
X85975714Y-91606666D01*
X86070952Y-91654285D01*
X86118571Y-91701904D01*
X86166190Y-91797142D01*
X86166190Y-92178095D01*
X85737619Y-91225714D02*
X85690000Y-91178095D01*
X85642380Y-91082857D01*
X85642380Y-90844761D01*
X85690000Y-90749523D01*
X85737619Y-90701904D01*
X85832857Y-90654285D01*
X85928095Y-90654285D01*
X86070952Y-90701904D01*
X86642380Y-91273333D01*
X86642380Y-90654285D01*
%TO.C,R1*%
X86642380Y-117006666D02*
X86166190Y-117340000D01*
X86642380Y-117578095D02*
X85642380Y-117578095D01*
X85642380Y-117197142D01*
X85690000Y-117101904D01*
X85737619Y-117054285D01*
X85832857Y-117006666D01*
X85975714Y-117006666D01*
X86070952Y-117054285D01*
X86118571Y-117101904D01*
X86166190Y-117197142D01*
X86166190Y-117578095D01*
X86642380Y-116054285D02*
X86642380Y-116625714D01*
X86642380Y-116340000D02*
X85642380Y-116340000D01*
X85785238Y-116435238D01*
X85880476Y-116530476D01*
X85928095Y-116625714D01*
%TD*%
M02*
