%TF.GenerationSoftware,KiCad,Pcbnew,5.1.10*%
%TF.CreationDate,2021-10-24T20:12:05+02:00*%
%TF.ProjectId,PCB,5043422e-6b69-4636-9164-5f7063625858,1.0*%
%TF.SameCoordinates,Original*%
%TF.FileFunction,Soldermask,Top*%
%TF.FilePolarity,Negative*%
%FSLAX46Y46*%
G04 Gerber Fmt 4.6, Leading zero omitted, Abs format (unit mm)*
G04 Created by KiCad (PCBNEW 5.1.10) date 2021-10-24 20:12:05*
%MOMM*%
%LPD*%
G01*
G04 APERTURE LIST*
%ADD10C,3.000000*%
%ADD11O,1.700000X1.700000*%
%ADD12C,1.700000*%
%ADD13R,1.500000X1.500000*%
%ADD14O,1.600000X1.600000*%
%ADD15O,2.000000X1.600000*%
%ADD16C,1.600000*%
G04 APERTURE END LIST*
D10*
X112903000Y-115951000D03*
X112903000Y-110871000D03*
X112903000Y-105791000D03*
X112903000Y-93726000D03*
X112903000Y-88646000D03*
D11*
X53289200Y-81737200D03*
X55829200Y-81737200D03*
X58369200Y-81737200D03*
X60909200Y-81737200D03*
X63449200Y-81737200D03*
X65989200Y-81737200D03*
X68529200Y-81737200D03*
D12*
X71069200Y-81737200D03*
D13*
X83312000Y-81280000D03*
X80772000Y-81280000D03*
D14*
X100330000Y-90170000D03*
X92710000Y-92710000D03*
X100330000Y-92710000D03*
G36*
G01*
X91910000Y-90570000D02*
X91910000Y-89770000D01*
G75*
G02*
X92310000Y-89370000I400000J0D01*
G01*
X93110000Y-89370000D01*
G75*
G02*
X93510000Y-89770000I0J-400000D01*
G01*
X93510000Y-90570000D01*
G75*
G02*
X93110000Y-90970000I-400000J0D01*
G01*
X92310000Y-90970000D01*
G75*
G02*
X91910000Y-90570000I0J400000D01*
G01*
G37*
X100330000Y-115570000D03*
X92710000Y-118110000D03*
X100330000Y-118110000D03*
G36*
G01*
X91910000Y-115970000D02*
X91910000Y-115170000D01*
G75*
G02*
X92310000Y-114770000I400000J0D01*
G01*
X93110000Y-114770000D01*
G75*
G02*
X93510000Y-115170000I0J-400000D01*
G01*
X93510000Y-115970000D01*
G75*
G02*
X93110000Y-116370000I-400000J0D01*
G01*
X92310000Y-116370000D01*
G75*
G02*
X91910000Y-115970000I0J400000D01*
G01*
G37*
X82550000Y-105410000D03*
X90170000Y-102870000D03*
X82550000Y-102870000D03*
G36*
G01*
X90970000Y-105010000D02*
X90970000Y-105810000D01*
G75*
G02*
X90570000Y-106210000I-400000J0D01*
G01*
X89770000Y-106210000D01*
G75*
G02*
X89370000Y-105810000I0J400000D01*
G01*
X89370000Y-105010000D01*
G75*
G02*
X89770000Y-104610000I400000J0D01*
G01*
X90570000Y-104610000D01*
G75*
G02*
X90970000Y-105010000I0J-400000D01*
G01*
G37*
D15*
X73660000Y-95250000D03*
X73660000Y-97790000D03*
X73660000Y-100330000D03*
X73660000Y-102870000D03*
X73660000Y-105410000D03*
X73660000Y-107950000D03*
X73660000Y-110490000D03*
X73660000Y-113030000D03*
X50800000Y-113030000D03*
X50800000Y-110490000D03*
X50800000Y-107950000D03*
X50800000Y-105410000D03*
X50800000Y-102870000D03*
X50800000Y-100330000D03*
G36*
G01*
X49800000Y-95750000D02*
X49800000Y-94750000D01*
G75*
G02*
X50300000Y-94250000I500000J0D01*
G01*
X51300000Y-94250000D01*
G75*
G02*
X51800000Y-94750000I0J-500000D01*
G01*
X51800000Y-95750000D01*
G75*
G02*
X51300000Y-96250000I-500000J0D01*
G01*
X50300000Y-96250000D01*
G75*
G02*
X49800000Y-95750000I0J500000D01*
G01*
G37*
X50800000Y-97790000D03*
D11*
X104902000Y-113665000D03*
X104902000Y-111125000D03*
D12*
X104902000Y-108585000D03*
D11*
X104902000Y-92456000D03*
D12*
X104902000Y-89916000D03*
D14*
X95250000Y-104394000D03*
D16*
X105410000Y-104394000D03*
D14*
X83820000Y-96520000D03*
D16*
X83820000Y-86360000D03*
D14*
X83820000Y-121920000D03*
D16*
X83820000Y-111760000D03*
M02*
