%TF.GenerationSoftware,KiCad,Pcbnew,5.1.10*%
%TF.CreationDate,2021-10-24T13:16:46+02:00*%
%TF.ProjectId,PCB,5043422e-6b69-4636-9164-5f7063625858,1.0*%
%TF.SameCoordinates,Original*%
%TF.FileFunction,Copper,L2,Bot*%
%TF.FilePolarity,Positive*%
%FSLAX46Y46*%
G04 Gerber Fmt 4.6, Leading zero omitted, Abs format (unit mm)*
G04 Created by KiCad (PCBNEW 5.1.10) date 2021-10-24 13:16:46*
%MOMM*%
%LPD*%
G01*
G04 APERTURE LIST*
%TA.AperFunction,ComponentPad*%
%ADD10O,1.700000X1.700000*%
%TD*%
%TA.AperFunction,ComponentPad*%
%ADD11R,1.700000X1.700000*%
%TD*%
%TA.AperFunction,ComponentPad*%
%ADD12C,3.000000*%
%TD*%
%TA.AperFunction,ComponentPad*%
%ADD13R,3.000000X3.000000*%
%TD*%
%TA.AperFunction,ComponentPad*%
%ADD14O,2.000000X1.600000*%
%TD*%
%TA.AperFunction,ComponentPad*%
%ADD15R,2.000000X2.000000*%
%TD*%
%TA.AperFunction,ComponentPad*%
%ADD16O,1.600000X1.600000*%
%TD*%
%TA.AperFunction,ComponentPad*%
%ADD17R,1.600000X1.600000*%
%TD*%
%TA.AperFunction,ComponentPad*%
%ADD18C,1.600000*%
%TD*%
%TA.AperFunction,ViaPad*%
%ADD19C,0.800000*%
%TD*%
%TA.AperFunction,Conductor*%
%ADD20C,0.250000*%
%TD*%
G04 APERTURE END LIST*
D10*
X104902000Y-107950000D03*
X104902000Y-110490000D03*
D11*
X104902000Y-113030000D03*
D10*
X104902000Y-89916000D03*
D11*
X104902000Y-92456000D03*
D12*
X113030000Y-105410000D03*
X113030000Y-110490000D03*
D13*
X113030000Y-115570000D03*
D12*
X113030000Y-88646000D03*
D13*
X113030000Y-93726000D03*
D10*
X55880000Y-81534000D03*
X58420000Y-81534000D03*
X60960000Y-81534000D03*
X63500000Y-81534000D03*
X66040000Y-81534000D03*
D11*
X68580000Y-81534000D03*
D14*
X73660000Y-95250000D03*
X73660000Y-97790000D03*
X73660000Y-100330000D03*
X73660000Y-102870000D03*
X73660000Y-105410000D03*
X73660000Y-107950000D03*
X73660000Y-110490000D03*
X73660000Y-113030000D03*
X50800000Y-113030000D03*
X50800000Y-110490000D03*
X50800000Y-107950000D03*
X50800000Y-105410000D03*
X50800000Y-102870000D03*
X50800000Y-100330000D03*
D15*
X50800000Y-95250000D03*
D14*
X50800000Y-97790000D03*
D16*
X100330000Y-90170000D03*
X92710000Y-92710000D03*
X100330000Y-92710000D03*
D17*
X92710000Y-90170000D03*
D16*
X100330000Y-115570000D03*
X92710000Y-118110000D03*
X100330000Y-118110000D03*
D17*
X92710000Y-115570000D03*
D16*
X82550000Y-105410000D03*
X90170000Y-102870000D03*
X82550000Y-102870000D03*
D17*
X90170000Y-105410000D03*
D16*
X95250000Y-104394000D03*
D18*
X105410000Y-104394000D03*
D16*
X83820000Y-96520000D03*
D18*
X83820000Y-86360000D03*
D16*
X83820000Y-121920000D03*
D18*
X83820000Y-111760000D03*
D19*
X80772000Y-81280000D03*
D20*
X73660000Y-107950000D02*
X75712320Y-107950000D01*
X75712320Y-107950000D02*
X81051400Y-113289080D01*
X81051400Y-119151400D02*
X83820000Y-121920000D01*
X81051400Y-113289080D02*
X81051400Y-119151400D01*
X83820000Y-111760000D02*
X90170000Y-118110000D01*
X90170000Y-118110000D02*
X92710000Y-118110000D01*
X55880000Y-100330000D02*
X50800000Y-105410000D01*
X55880000Y-81534000D02*
X55880000Y-100330000D01*
X51054000Y-107950000D02*
X50800000Y-107950000D01*
X58420000Y-100330000D02*
X50800000Y-107950000D01*
X58420000Y-81534000D02*
X58420000Y-100330000D01*
X60960000Y-100330000D02*
X50800000Y-110490000D01*
X60960000Y-81534000D02*
X60960000Y-100330000D01*
X63500000Y-90170000D02*
X73660000Y-100330000D01*
X63500000Y-81534000D02*
X63500000Y-90170000D01*
X66040000Y-90170000D02*
X73660000Y-97790000D01*
X66040000Y-81534000D02*
X66040000Y-90170000D01*
X68580000Y-90170000D02*
X73660000Y-95250000D01*
X68580000Y-81534000D02*
X68580000Y-90170000D01*
X100330000Y-95250000D02*
X100330000Y-92710000D01*
X90170000Y-105410000D02*
X100330000Y-95250000D01*
X73660000Y-105410000D02*
X82550000Y-105410000D01*
X54483000Y-78740000D02*
X78232000Y-78740000D01*
X48133000Y-85090000D02*
X54483000Y-78740000D01*
X78232000Y-78740000D02*
X80772000Y-81280000D01*
X48133000Y-100965000D02*
X48133000Y-85090000D01*
X50038000Y-102870000D02*
X48133000Y-100965000D01*
X50800000Y-102870000D02*
X50038000Y-102870000D01*
X92710000Y-90170000D02*
X86868000Y-96012000D01*
X92710000Y-115570000D02*
X86868000Y-109728000D01*
X86868000Y-109728000D02*
X86868000Y-96012000D01*
X113030000Y-105410000D02*
X102489000Y-94869000D01*
X102489000Y-92329000D02*
X100330000Y-90170000D01*
X102489000Y-94869000D02*
X102489000Y-92329000D01*
X110490000Y-107950000D02*
X113030000Y-105410000D01*
X104902000Y-107950000D02*
X110490000Y-107950000D01*
M02*
