M48
; DRILL file {KiCad 5.1.10} date Sun Oct 24 13:16:50 2021
; FORMAT={-:-/ absolute / metric / decimal}
; #@! TF.CreationDate,2021-10-24T13:16:50+02:00
; #@! TF.GenerationSoftware,Kicad,Pcbnew,5.1.10
; #@! TF.FileFunction,Plated,1,2,PTH
FMAT,2
METRIC
T1C0.400
T2C0.800
T3C1.000
T4C1.520
%
G90
G05
T1
X80.772Y-81.28
T2
X82.55Y-102.87
X82.55Y-105.41
X83.82Y-86.36
X83.82Y-96.52
X83.82Y-111.76
X83.82Y-121.92
X90.17Y-102.87
X90.17Y-105.41
X92.71Y-90.17
X92.71Y-92.71
X92.71Y-115.57
X92.71Y-118.11
X95.25Y-104.394
X100.33Y-90.17
X100.33Y-92.71
X100.33Y-115.57
X100.33Y-118.11
X105.41Y-104.394
T3
X50.8Y-95.25
X50.8Y-97.79
X50.8Y-100.33
X50.8Y-102.87
X50.8Y-105.41
X50.8Y-107.95
X50.8Y-110.49
X50.8Y-113.03
X55.88Y-81.534
X58.42Y-81.534
X60.96Y-81.534
X63.5Y-81.534
X66.04Y-81.534
X68.58Y-81.534
X73.66Y-95.25
X73.66Y-97.79
X73.66Y-100.33
X73.66Y-102.87
X73.66Y-105.41
X73.66Y-107.95
X73.66Y-110.49
X73.66Y-113.03
X104.902Y-89.916
X104.902Y-92.456
X104.902Y-107.95
X104.902Y-110.49
X104.902Y-113.03
T4
X113.03Y-88.646
X113.03Y-93.726
X113.03Y-105.41
X113.03Y-110.49
X113.03Y-115.57
T0
M30
