%TF.GenerationSoftware,KiCad,Pcbnew,5.1.10*%
%TF.CreationDate,2021-10-24T13:16:46+02:00*%
%TF.ProjectId,PCB,5043422e-6b69-4636-9164-5f7063625858,1.0*%
%TF.SameCoordinates,Original*%
%TF.FileFunction,Copper,L1,Top*%
%TF.FilePolarity,Positive*%
%FSLAX46Y46*%
G04 Gerber Fmt 4.6, Leading zero omitted, Abs format (unit mm)*
G04 Created by KiCad (PCBNEW 5.1.10) date 2021-10-24 13:16:46*
%MOMM*%
%LPD*%
G01*
G04 APERTURE LIST*
%TA.AperFunction,ComponentPad*%
%ADD10O,1.700000X1.700000*%
%TD*%
%TA.AperFunction,ComponentPad*%
%ADD11R,1.700000X1.700000*%
%TD*%
%TA.AperFunction,ComponentPad*%
%ADD12C,3.000000*%
%TD*%
%TA.AperFunction,ComponentPad*%
%ADD13R,3.000000X3.000000*%
%TD*%
%TA.AperFunction,SMDPad,CuDef*%
%ADD14R,1.500000X1.500000*%
%TD*%
%TA.AperFunction,ComponentPad*%
%ADD15O,2.000000X1.600000*%
%TD*%
%TA.AperFunction,ComponentPad*%
%ADD16R,2.000000X2.000000*%
%TD*%
%TA.AperFunction,ComponentPad*%
%ADD17O,1.600000X1.600000*%
%TD*%
%TA.AperFunction,ComponentPad*%
%ADD18R,1.600000X1.600000*%
%TD*%
%TA.AperFunction,ComponentPad*%
%ADD19C,1.600000*%
%TD*%
%TA.AperFunction,ViaPad*%
%ADD20C,0.800000*%
%TD*%
%TA.AperFunction,Conductor*%
%ADD21C,0.250000*%
%TD*%
%TA.AperFunction,Conductor*%
%ADD22C,0.500000*%
%TD*%
G04 APERTURE END LIST*
D10*
X104902000Y-107950000D03*
X104902000Y-110490000D03*
D11*
X104902000Y-113030000D03*
D10*
X104902000Y-89916000D03*
D11*
X104902000Y-92456000D03*
D12*
X113030000Y-105410000D03*
X113030000Y-110490000D03*
D13*
X113030000Y-115570000D03*
D12*
X113030000Y-88646000D03*
D13*
X113030000Y-93726000D03*
D14*
X83312000Y-81280000D03*
X80772000Y-81280000D03*
D10*
X55880000Y-81534000D03*
X58420000Y-81534000D03*
X60960000Y-81534000D03*
X63500000Y-81534000D03*
X66040000Y-81534000D03*
D11*
X68580000Y-81534000D03*
D15*
X73660000Y-95250000D03*
X73660000Y-97790000D03*
X73660000Y-100330000D03*
X73660000Y-102870000D03*
X73660000Y-105410000D03*
X73660000Y-107950000D03*
X73660000Y-110490000D03*
X73660000Y-113030000D03*
X50800000Y-113030000D03*
X50800000Y-110490000D03*
X50800000Y-107950000D03*
X50800000Y-105410000D03*
X50800000Y-102870000D03*
X50800000Y-100330000D03*
D16*
X50800000Y-95250000D03*
D15*
X50800000Y-97790000D03*
D17*
X100330000Y-90170000D03*
X92710000Y-92710000D03*
X100330000Y-92710000D03*
D18*
X92710000Y-90170000D03*
D17*
X100330000Y-115570000D03*
X92710000Y-118110000D03*
X100330000Y-118110000D03*
D18*
X92710000Y-115570000D03*
D17*
X82550000Y-105410000D03*
X90170000Y-102870000D03*
X82550000Y-102870000D03*
D18*
X90170000Y-105410000D03*
D17*
X95250000Y-104394000D03*
D19*
X105410000Y-104394000D03*
D17*
X83820000Y-96520000D03*
D19*
X83820000Y-86360000D03*
D17*
X83820000Y-121920000D03*
D19*
X83820000Y-111760000D03*
D20*
X80772000Y-81280000D03*
D21*
X80010000Y-96520000D02*
X73660000Y-102870000D01*
X83820000Y-96520000D02*
X80010000Y-96520000D01*
X83820000Y-86360000D02*
X86360000Y-86360000D01*
X86360000Y-86360000D02*
X92710000Y-92710000D01*
X93726000Y-102870000D02*
X95250000Y-104394000D01*
X90170000Y-102870000D02*
X93726000Y-102870000D01*
X50800000Y-95250000D02*
X52197000Y-95250000D01*
X52197000Y-95250000D02*
X53467000Y-96520000D01*
X50800000Y-100330000D02*
X52197000Y-100330000D01*
X53467000Y-99060000D02*
X53467000Y-96520000D01*
X52197000Y-100330000D02*
X53467000Y-99060000D01*
D22*
X92710000Y-90159840D02*
X92710000Y-90170000D01*
X50800000Y-113030000D02*
X47498000Y-109728000D01*
X47498000Y-109728000D02*
X47498000Y-87122000D01*
X47498000Y-87122000D02*
X49276000Y-85344000D01*
X49276000Y-85344000D02*
X76327000Y-85344000D01*
X76327000Y-85344000D02*
X77724000Y-83947000D01*
X86487000Y-83947000D02*
X92710000Y-90170000D01*
X77724000Y-83947000D02*
X86487000Y-83947000D01*
X113030000Y-88646000D02*
X108331000Y-83947000D01*
X98933000Y-83947000D02*
X92710000Y-90170000D01*
X108331000Y-83947000D02*
X98933000Y-83947000D01*
X104902000Y-87376000D02*
X108331000Y-83947000D01*
X104902000Y-89916000D02*
X104902000Y-87376000D01*
X74930000Y-110490000D02*
X82550000Y-102870000D01*
X73660000Y-110490000D02*
X74930000Y-110490000D01*
X112795999Y-93960001D02*
X105937999Y-93960001D01*
X113030000Y-93726000D02*
X112795999Y-93960001D01*
X105937999Y-93960001D02*
X100457000Y-99441000D01*
X82550000Y-102870000D02*
X85979000Y-99441000D01*
X85979000Y-99441000D02*
X100457000Y-99441000D01*
D21*
X108365002Y-81280000D02*
X112175002Y-85090000D01*
X83312000Y-81280000D02*
X108365002Y-81280000D01*
X113030000Y-93726000D02*
X114554000Y-93726000D01*
X114554000Y-93726000D02*
X116205000Y-92075000D01*
X116205000Y-92075000D02*
X116205000Y-85979000D01*
X115316000Y-85090000D02*
X112175002Y-85090000D01*
X116205000Y-85979000D02*
X115316000Y-85090000D01*
D22*
X104902000Y-92924002D02*
X105937999Y-93960001D01*
X104902000Y-92456000D02*
X104902000Y-92924002D01*
D21*
X105410000Y-110490000D02*
X113030000Y-110490000D01*
X106934000Y-104394000D02*
X113030000Y-110490000D01*
X105410000Y-104394000D02*
X106934000Y-104394000D01*
X104902000Y-110490000D02*
X104902000Y-110998000D01*
X104902000Y-110998000D02*
X105410000Y-110490000D01*
X100330000Y-115062000D02*
X100330000Y-115570000D01*
X104902000Y-110490000D02*
X100330000Y-115062000D01*
X102870000Y-115570000D02*
X100330000Y-118110000D01*
X113030000Y-115570000D02*
X102870000Y-115570000D01*
X104902000Y-113538000D02*
X102870000Y-115570000D01*
X104902000Y-113030000D02*
X104902000Y-113538000D01*
M02*
