M48
; DRILL file {KiCad 5.1.10} date Sun Oct 24 20:12:08 2021
; FORMAT={-:-/ absolute / metric / decimal}
; #@! TF.CreationDate,2021-10-24T20:12:08+02:00
; #@! TF.GenerationSoftware,Kicad,Pcbnew,5.1.10
; #@! TF.FileFunction,Plated,1,2,PTH
FMAT,2
METRIC
T1C0.400
T2C0.800
T3C1.000
T4C1.520
%
G90
G05
T1
X80.772Y-81.28
T2
X82.55Y-102.87
X82.55Y-105.41
X83.82Y-86.36
X83.82Y-96.52
X83.82Y-111.76
X83.82Y-121.92
X90.17Y-102.87
X90.17Y-105.41
X92.71Y-90.17
X92.71Y-92.71
X92.71Y-115.57
X92.71Y-118.11
X95.25Y-104.394
X100.33Y-90.17
X100.33Y-92.71
X100.33Y-115.57
X100.33Y-118.11
X105.41Y-104.394
T3
X50.8Y-95.25
X50.8Y-97.79
X50.8Y-100.33
X50.8Y-102.87
X50.8Y-105.41
X50.8Y-107.95
X50.8Y-110.49
X50.8Y-113.03
X53.289Y-81.737
X55.829Y-81.737
X58.369Y-81.737
X60.909Y-81.737
X63.449Y-81.737
X65.989Y-81.737
X68.529Y-81.737
X71.069Y-81.737
X73.66Y-95.25
X73.66Y-97.79
X73.66Y-100.33
X73.66Y-102.87
X73.66Y-105.41
X73.66Y-107.95
X73.66Y-110.49
X73.66Y-113.03
X104.902Y-89.916
X104.902Y-92.456
X104.902Y-108.585
X104.902Y-111.125
X104.902Y-113.665
T4
X112.903Y-88.646
X112.903Y-93.726
X112.903Y-105.791
X112.903Y-110.871
X112.903Y-115.951
T0
M30
