%FSLAX45Y45*%
G04 Gerber Fmt 4.5, Leading zero omitted, Abs format (unit mm)*
G04 Created by KiCad (PCBNEW 5.1.10) date 2021-10-24 20:12:08*
%MOMM*%
%LPD*%
G01*
G04 APERTURE LIST*
%TA.AperFunction,Profile*%
%ADD10C,0.050000*%
%TD*%
%ADD11C,0.200000*%
%ADD12C,0.300000*%
G04 APERTURE END LIST*
D10*
X4826000Y-12636500D02*
X11696700Y-12636500D01*
X4826000Y-7747000D02*
X11696700Y-7747000D01*
X4572000Y-8001000D02*
X4572000Y-12382500D01*
X11950700Y-8001000D02*
X11950700Y-12382500D01*
X5031302Y-12329598D02*
G75*
G03*
X5031302Y-12329598I-154502J0D01*
G01*
X5031302Y-8051800D02*
G75*
G03*
X5031302Y-8051800I-154502J0D01*
G01*
X11798300Y-8051800D02*
G75*
G03*
X11798300Y-8051800I-154502J0D01*
G01*
X11798300Y-12331700D02*
G75*
G03*
X11798300Y-12331700I-154502J0D01*
G01*
X4826000Y-12636500D02*
G75*
G02*
X4572000Y-12382500I0J254000D01*
G01*
X4572000Y-8001000D02*
G75*
G02*
X4826000Y-7747000I254000J0D01*
G01*
X11696700Y-7747000D02*
G75*
G02*
X11950700Y-8001000I0J-254000D01*
G01*
X11950700Y-12382500D02*
G75*
G02*
X11696700Y-12636500I-254000J0D01*
G01*
D11*
X8057200Y-8108000D02*
X8097200Y-8148000D01*
X8097200Y-8108000D02*
X8057200Y-8148000D01*
X8295000Y-10287000D02*
G75*
G03*
X8295000Y-10287000I-40000J0D01*
G01*
X8295000Y-10541000D02*
G75*
G03*
X8295000Y-10541000I-40000J0D01*
G01*
X8422000Y-8636000D02*
G75*
G03*
X8422000Y-8636000I-40000J0D01*
G01*
X8422000Y-9652000D02*
G75*
G03*
X8422000Y-9652000I-40000J0D01*
G01*
X8422000Y-11176000D02*
G75*
G03*
X8422000Y-11176000I-40000J0D01*
G01*
X8422000Y-12192000D02*
G75*
G03*
X8422000Y-12192000I-40000J0D01*
G01*
X9057000Y-10287000D02*
G75*
G03*
X9057000Y-10287000I-40000J0D01*
G01*
X9057000Y-10541000D02*
G75*
G03*
X9057000Y-10541000I-40000J0D01*
G01*
X9311000Y-9017000D02*
G75*
G03*
X9311000Y-9017000I-40000J0D01*
G01*
X9311000Y-9271000D02*
G75*
G03*
X9311000Y-9271000I-40000J0D01*
G01*
X9311000Y-11557000D02*
G75*
G03*
X9311000Y-11557000I-40000J0D01*
G01*
X9311000Y-11811000D02*
G75*
G03*
X9311000Y-11811000I-40000J0D01*
G01*
X9565000Y-10439400D02*
G75*
G03*
X9565000Y-10439400I-40000J0D01*
G01*
X10073000Y-9017000D02*
G75*
G03*
X10073000Y-9017000I-40000J0D01*
G01*
X10073000Y-9271000D02*
G75*
G03*
X10073000Y-9271000I-40000J0D01*
G01*
X10073000Y-11557000D02*
G75*
G03*
X10073000Y-11557000I-40000J0D01*
G01*
X10073000Y-11811000D02*
G75*
G03*
X10073000Y-11811000I-40000J0D01*
G01*
X10581000Y-10439400D02*
G75*
G03*
X10581000Y-10439400I-40000J0D01*
G01*
X5080000Y-9475000D02*
X5080000Y-9575000D01*
X5030000Y-9525000D02*
X5130000Y-9525000D01*
X5080000Y-9729000D02*
X5080000Y-9829000D01*
X5030000Y-9779000D02*
X5130000Y-9779000D01*
X5080000Y-9983000D02*
X5080000Y-10083000D01*
X5030000Y-10033000D02*
X5130000Y-10033000D01*
X5080000Y-10237000D02*
X5080000Y-10337000D01*
X5030000Y-10287000D02*
X5130000Y-10287000D01*
X5080000Y-10491000D02*
X5080000Y-10591000D01*
X5030000Y-10541000D02*
X5130000Y-10541000D01*
X5080000Y-10745000D02*
X5080000Y-10845000D01*
X5030000Y-10795000D02*
X5130000Y-10795000D01*
X5080000Y-10999000D02*
X5080000Y-11099000D01*
X5030000Y-11049000D02*
X5130000Y-11049000D01*
X5080000Y-11253000D02*
X5080000Y-11353000D01*
X5030000Y-11303000D02*
X5130000Y-11303000D01*
X5328920Y-8123720D02*
X5328920Y-8223720D01*
X5278920Y-8173720D02*
X5378920Y-8173720D01*
X5582920Y-8123720D02*
X5582920Y-8223720D01*
X5532920Y-8173720D02*
X5632920Y-8173720D01*
X5836920Y-8123720D02*
X5836920Y-8223720D01*
X5786920Y-8173720D02*
X5886920Y-8173720D01*
X6090920Y-8123720D02*
X6090920Y-8223720D01*
X6040920Y-8173720D02*
X6140920Y-8173720D01*
X6344920Y-8123720D02*
X6344920Y-8223720D01*
X6294920Y-8173720D02*
X6394920Y-8173720D01*
X6598920Y-8123720D02*
X6598920Y-8223720D01*
X6548920Y-8173720D02*
X6648920Y-8173720D01*
X6852920Y-8123720D02*
X6852920Y-8223720D01*
X6802920Y-8173720D02*
X6902920Y-8173720D01*
X7106920Y-8123720D02*
X7106920Y-8223720D01*
X7056920Y-8173720D02*
X7156920Y-8173720D01*
X7366000Y-9475000D02*
X7366000Y-9575000D01*
X7316000Y-9525000D02*
X7416000Y-9525000D01*
X7366000Y-9729000D02*
X7366000Y-9829000D01*
X7316000Y-9779000D02*
X7416000Y-9779000D01*
X7366000Y-9983000D02*
X7366000Y-10083000D01*
X7316000Y-10033000D02*
X7416000Y-10033000D01*
X7366000Y-10237000D02*
X7366000Y-10337000D01*
X7316000Y-10287000D02*
X7416000Y-10287000D01*
X7366000Y-10491000D02*
X7366000Y-10591000D01*
X7316000Y-10541000D02*
X7416000Y-10541000D01*
X7366000Y-10745000D02*
X7366000Y-10845000D01*
X7316000Y-10795000D02*
X7416000Y-10795000D01*
X7366000Y-10999000D02*
X7366000Y-11099000D01*
X7316000Y-11049000D02*
X7416000Y-11049000D01*
X7366000Y-11253000D02*
X7366000Y-11353000D01*
X7316000Y-11303000D02*
X7416000Y-11303000D01*
X10490200Y-8941600D02*
X10490200Y-9041600D01*
X10440200Y-8991600D02*
X10540200Y-8991600D01*
X10490200Y-9195600D02*
X10490200Y-9295600D01*
X10440200Y-9245600D02*
X10540200Y-9245600D01*
X10490200Y-10808500D02*
X10490200Y-10908500D01*
X10440200Y-10858500D02*
X10540200Y-10858500D01*
X10490200Y-11062500D02*
X10490200Y-11162500D01*
X10440200Y-11112500D02*
X10540200Y-11112500D01*
X10490200Y-11316500D02*
X10490200Y-11416500D01*
X10440200Y-11366500D02*
X10540200Y-11366500D01*
X11344041Y-8918341D02*
X11344041Y-8810859D01*
X11236559Y-8810859D01*
X11236559Y-8918341D01*
X11344041Y-8918341D01*
X11344041Y-9426341D02*
X11344041Y-9318859D01*
X11236559Y-9318859D01*
X11236559Y-9426341D01*
X11344041Y-9426341D01*
X11344041Y-10632841D02*
X11344041Y-10525359D01*
X11236559Y-10525359D01*
X11236559Y-10632841D01*
X11344041Y-10632841D01*
X11344041Y-11140841D02*
X11344041Y-11033359D01*
X11236559Y-11033359D01*
X11236559Y-11140841D01*
X11344041Y-11140841D01*
X11344041Y-11648841D02*
X11344041Y-11541359D01*
X11236559Y-11541359D01*
X11236559Y-11648841D01*
X11344041Y-11648841D01*
D12*
X4855928Y-13104714D02*
X4855928Y-12804714D01*
X4927357Y-12804714D01*
X4970214Y-12819000D01*
X4998786Y-12847571D01*
X5013071Y-12876143D01*
X5027357Y-12933286D01*
X5027357Y-12976143D01*
X5013071Y-13033286D01*
X4998786Y-13061857D01*
X4970214Y-13090429D01*
X4927357Y-13104714D01*
X4855928Y-13104714D01*
X5155928Y-13104714D02*
X5155928Y-12904714D01*
X5155928Y-12961857D02*
X5170214Y-12933286D01*
X5184500Y-12919000D01*
X5213071Y-12904714D01*
X5241643Y-12904714D01*
X5341643Y-13104714D02*
X5341643Y-12904714D01*
X5341643Y-12804714D02*
X5327357Y-12819000D01*
X5341643Y-12833286D01*
X5355928Y-12819000D01*
X5341643Y-12804714D01*
X5341643Y-12833286D01*
X5527357Y-13104714D02*
X5498786Y-13090429D01*
X5484500Y-13061857D01*
X5484500Y-12804714D01*
X5684500Y-13104714D02*
X5655928Y-13090429D01*
X5641643Y-13061857D01*
X5641643Y-12804714D01*
X6027357Y-13104714D02*
X6027357Y-12804714D01*
X6127357Y-13019000D01*
X6227357Y-12804714D01*
X6227357Y-13104714D01*
X6498786Y-13104714D02*
X6498786Y-12947571D01*
X6484500Y-12919000D01*
X6455928Y-12904714D01*
X6398786Y-12904714D01*
X6370214Y-12919000D01*
X6498786Y-13090429D02*
X6470214Y-13104714D01*
X6398786Y-13104714D01*
X6370214Y-13090429D01*
X6355928Y-13061857D01*
X6355928Y-13033286D01*
X6370214Y-13004714D01*
X6398786Y-12990429D01*
X6470214Y-12990429D01*
X6498786Y-12976143D01*
X6641643Y-12904714D02*
X6641643Y-13204714D01*
X6641643Y-12919000D02*
X6670214Y-12904714D01*
X6727357Y-12904714D01*
X6755928Y-12919000D01*
X6770214Y-12933286D01*
X6784500Y-12961857D01*
X6784500Y-13047571D01*
X6770214Y-13076143D01*
X6755928Y-13090429D01*
X6727357Y-13104714D01*
X6670214Y-13104714D01*
X6641643Y-13090429D01*
X6913071Y-13076143D02*
X6927357Y-13090429D01*
X6913071Y-13104714D01*
X6898786Y-13090429D01*
X6913071Y-13076143D01*
X6913071Y-13104714D01*
X6913071Y-12919000D02*
X6927357Y-12933286D01*
X6913071Y-12947571D01*
X6898786Y-12933286D01*
X6913071Y-12919000D01*
X6913071Y-12947571D01*
X4529500Y-13579000D02*
X4569500Y-13619000D01*
X4569500Y-13579000D02*
X4529500Y-13619000D01*
X4913071Y-13434714D02*
X4941643Y-13434714D01*
X4970214Y-13449000D01*
X4984500Y-13463286D01*
X4998786Y-13491857D01*
X5013071Y-13549000D01*
X5013071Y-13620429D01*
X4998786Y-13677571D01*
X4984500Y-13706143D01*
X4970214Y-13720429D01*
X4941643Y-13734714D01*
X4913071Y-13734714D01*
X4884500Y-13720429D01*
X4870214Y-13706143D01*
X4855928Y-13677571D01*
X4841643Y-13620429D01*
X4841643Y-13549000D01*
X4855928Y-13491857D01*
X4870214Y-13463286D01*
X4884500Y-13449000D01*
X4913071Y-13434714D01*
X5141643Y-13706143D02*
X5155928Y-13720429D01*
X5141643Y-13734714D01*
X5127357Y-13720429D01*
X5141643Y-13706143D01*
X5141643Y-13734714D01*
X5413071Y-13534714D02*
X5413071Y-13734714D01*
X5341643Y-13420429D02*
X5270214Y-13634714D01*
X5455928Y-13634714D01*
X5627357Y-13434714D02*
X5655928Y-13434714D01*
X5684500Y-13449000D01*
X5698786Y-13463286D01*
X5713071Y-13491857D01*
X5727357Y-13549000D01*
X5727357Y-13620429D01*
X5713071Y-13677571D01*
X5698786Y-13706143D01*
X5684500Y-13720429D01*
X5655928Y-13734714D01*
X5627357Y-13734714D01*
X5598786Y-13720429D01*
X5584500Y-13706143D01*
X5570214Y-13677571D01*
X5555928Y-13620429D01*
X5555928Y-13549000D01*
X5570214Y-13491857D01*
X5584500Y-13463286D01*
X5598786Y-13449000D01*
X5627357Y-13434714D01*
X5913071Y-13434714D02*
X5941643Y-13434714D01*
X5970214Y-13449000D01*
X5984500Y-13463286D01*
X5998786Y-13491857D01*
X6013071Y-13549000D01*
X6013071Y-13620429D01*
X5998786Y-13677571D01*
X5984500Y-13706143D01*
X5970214Y-13720429D01*
X5941643Y-13734714D01*
X5913071Y-13734714D01*
X5884500Y-13720429D01*
X5870214Y-13706143D01*
X5855928Y-13677571D01*
X5841643Y-13620429D01*
X5841643Y-13549000D01*
X5855928Y-13491857D01*
X5870214Y-13463286D01*
X5884500Y-13449000D01*
X5913071Y-13434714D01*
X6141643Y-13734714D02*
X6141643Y-13534714D01*
X6141643Y-13563286D02*
X6155928Y-13549000D01*
X6184500Y-13534714D01*
X6227357Y-13534714D01*
X6255928Y-13549000D01*
X6270214Y-13577571D01*
X6270214Y-13734714D01*
X6270214Y-13577571D02*
X6284500Y-13549000D01*
X6313071Y-13534714D01*
X6355928Y-13534714D01*
X6384500Y-13549000D01*
X6398786Y-13577571D01*
X6398786Y-13734714D01*
X6541643Y-13734714D02*
X6541643Y-13534714D01*
X6541643Y-13563286D02*
X6555928Y-13549000D01*
X6584500Y-13534714D01*
X6627357Y-13534714D01*
X6655928Y-13549000D01*
X6670214Y-13577571D01*
X6670214Y-13734714D01*
X6670214Y-13577571D02*
X6684500Y-13549000D01*
X6713071Y-13534714D01*
X6755928Y-13534714D01*
X6784500Y-13549000D01*
X6798786Y-13577571D01*
X6798786Y-13734714D01*
X7384500Y-13420429D02*
X7127357Y-13806143D01*
X7770214Y-13434714D02*
X7798786Y-13434714D01*
X7827357Y-13449000D01*
X7841643Y-13463286D01*
X7855928Y-13491857D01*
X7870214Y-13549000D01*
X7870214Y-13620429D01*
X7855928Y-13677571D01*
X7841643Y-13706143D01*
X7827357Y-13720429D01*
X7798786Y-13734714D01*
X7770214Y-13734714D01*
X7741643Y-13720429D01*
X7727357Y-13706143D01*
X7713071Y-13677571D01*
X7698786Y-13620429D01*
X7698786Y-13549000D01*
X7713071Y-13491857D01*
X7727357Y-13463286D01*
X7741643Y-13449000D01*
X7770214Y-13434714D01*
X7998786Y-13706143D02*
X8013071Y-13720429D01*
X7998786Y-13734714D01*
X7984500Y-13720429D01*
X7998786Y-13706143D01*
X7998786Y-13734714D01*
X8198786Y-13434714D02*
X8227357Y-13434714D01*
X8255928Y-13449000D01*
X8270214Y-13463286D01*
X8284500Y-13491857D01*
X8298786Y-13549000D01*
X8298786Y-13620429D01*
X8284500Y-13677571D01*
X8270214Y-13706143D01*
X8255928Y-13720429D01*
X8227357Y-13734714D01*
X8198786Y-13734714D01*
X8170214Y-13720429D01*
X8155928Y-13706143D01*
X8141643Y-13677571D01*
X8127357Y-13620429D01*
X8127357Y-13549000D01*
X8141643Y-13491857D01*
X8155928Y-13463286D01*
X8170214Y-13449000D01*
X8198786Y-13434714D01*
X8584500Y-13734714D02*
X8413071Y-13734714D01*
X8498786Y-13734714D02*
X8498786Y-13434714D01*
X8470214Y-13477571D01*
X8441643Y-13506143D01*
X8413071Y-13520429D01*
X8855928Y-13434714D02*
X8713071Y-13434714D01*
X8698786Y-13577571D01*
X8713071Y-13563286D01*
X8741643Y-13549000D01*
X8813071Y-13549000D01*
X8841643Y-13563286D01*
X8855928Y-13577571D01*
X8870214Y-13606143D01*
X8870214Y-13677571D01*
X8855928Y-13706143D01*
X8841643Y-13720429D01*
X8813071Y-13734714D01*
X8741643Y-13734714D01*
X8713071Y-13720429D01*
X8698786Y-13706143D01*
X8970214Y-13434714D02*
X9170214Y-13434714D01*
X9041643Y-13734714D01*
X9270214Y-13434714D02*
X9270214Y-13491857D01*
X9384500Y-13434714D02*
X9384500Y-13491857D01*
X9827357Y-13849000D02*
X9813071Y-13834714D01*
X9784500Y-13791857D01*
X9770214Y-13763286D01*
X9755928Y-13720429D01*
X9741643Y-13649000D01*
X9741643Y-13591857D01*
X9755928Y-13520429D01*
X9770214Y-13477571D01*
X9784500Y-13449000D01*
X9813071Y-13406143D01*
X9827357Y-13391857D01*
X10098786Y-13734714D02*
X9927357Y-13734714D01*
X10013071Y-13734714D02*
X10013071Y-13434714D01*
X9984500Y-13477571D01*
X9955928Y-13506143D01*
X9927357Y-13520429D01*
X10455928Y-13734714D02*
X10455928Y-13434714D01*
X10584500Y-13734714D02*
X10584500Y-13577571D01*
X10570214Y-13549000D01*
X10541643Y-13534714D01*
X10498786Y-13534714D01*
X10470214Y-13549000D01*
X10455928Y-13563286D01*
X10770214Y-13734714D02*
X10741643Y-13720429D01*
X10727357Y-13706143D01*
X10713071Y-13677571D01*
X10713071Y-13591857D01*
X10727357Y-13563286D01*
X10741643Y-13549000D01*
X10770214Y-13534714D01*
X10813071Y-13534714D01*
X10841643Y-13549000D01*
X10855928Y-13563286D01*
X10870214Y-13591857D01*
X10870214Y-13677571D01*
X10855928Y-13706143D01*
X10841643Y-13720429D01*
X10813071Y-13734714D01*
X10770214Y-13734714D01*
X11041643Y-13734714D02*
X11013071Y-13720429D01*
X10998786Y-13691857D01*
X10998786Y-13434714D01*
X11270214Y-13720429D02*
X11241643Y-13734714D01*
X11184500Y-13734714D01*
X11155928Y-13720429D01*
X11141643Y-13691857D01*
X11141643Y-13577571D01*
X11155928Y-13549000D01*
X11184500Y-13534714D01*
X11241643Y-13534714D01*
X11270214Y-13549000D01*
X11284500Y-13577571D01*
X11284500Y-13606143D01*
X11141643Y-13634714D01*
X11384500Y-13849000D02*
X11398786Y-13834714D01*
X11427357Y-13791857D01*
X11441643Y-13763286D01*
X11455928Y-13720429D01*
X11470214Y-13649000D01*
X11470214Y-13591857D01*
X11455928Y-13520429D01*
X11441643Y-13477571D01*
X11427357Y-13449000D01*
X11398786Y-13406143D01*
X11384500Y-13391857D01*
X4569500Y-13995000D02*
G75*
G03*
X4569500Y-13995000I-40000J0D01*
G01*
X4913071Y-13830714D02*
X4941643Y-13830714D01*
X4970214Y-13845000D01*
X4984500Y-13859286D01*
X4998786Y-13887857D01*
X5013071Y-13945000D01*
X5013071Y-14016429D01*
X4998786Y-14073571D01*
X4984500Y-14102143D01*
X4970214Y-14116429D01*
X4941643Y-14130714D01*
X4913071Y-14130714D01*
X4884500Y-14116429D01*
X4870214Y-14102143D01*
X4855928Y-14073571D01*
X4841643Y-14016429D01*
X4841643Y-13945000D01*
X4855928Y-13887857D01*
X4870214Y-13859286D01*
X4884500Y-13845000D01*
X4913071Y-13830714D01*
X5141643Y-14102143D02*
X5155928Y-14116429D01*
X5141643Y-14130714D01*
X5127357Y-14116429D01*
X5141643Y-14102143D01*
X5141643Y-14130714D01*
X5327357Y-13959286D02*
X5298786Y-13945000D01*
X5284500Y-13930714D01*
X5270214Y-13902143D01*
X5270214Y-13887857D01*
X5284500Y-13859286D01*
X5298786Y-13845000D01*
X5327357Y-13830714D01*
X5384500Y-13830714D01*
X5413071Y-13845000D01*
X5427357Y-13859286D01*
X5441643Y-13887857D01*
X5441643Y-13902143D01*
X5427357Y-13930714D01*
X5413071Y-13945000D01*
X5384500Y-13959286D01*
X5327357Y-13959286D01*
X5298786Y-13973571D01*
X5284500Y-13987857D01*
X5270214Y-14016429D01*
X5270214Y-14073571D01*
X5284500Y-14102143D01*
X5298786Y-14116429D01*
X5327357Y-14130714D01*
X5384500Y-14130714D01*
X5413071Y-14116429D01*
X5427357Y-14102143D01*
X5441643Y-14073571D01*
X5441643Y-14016429D01*
X5427357Y-13987857D01*
X5413071Y-13973571D01*
X5384500Y-13959286D01*
X5627357Y-13830714D02*
X5655928Y-13830714D01*
X5684500Y-13845000D01*
X5698786Y-13859286D01*
X5713071Y-13887857D01*
X5727357Y-13945000D01*
X5727357Y-14016429D01*
X5713071Y-14073571D01*
X5698786Y-14102143D01*
X5684500Y-14116429D01*
X5655928Y-14130714D01*
X5627357Y-14130714D01*
X5598786Y-14116429D01*
X5584500Y-14102143D01*
X5570214Y-14073571D01*
X5555928Y-14016429D01*
X5555928Y-13945000D01*
X5570214Y-13887857D01*
X5584500Y-13859286D01*
X5598786Y-13845000D01*
X5627357Y-13830714D01*
X5913071Y-13830714D02*
X5941643Y-13830714D01*
X5970214Y-13845000D01*
X5984500Y-13859286D01*
X5998786Y-13887857D01*
X6013071Y-13945000D01*
X6013071Y-14016429D01*
X5998786Y-14073571D01*
X5984500Y-14102143D01*
X5970214Y-14116429D01*
X5941643Y-14130714D01*
X5913071Y-14130714D01*
X5884500Y-14116429D01*
X5870214Y-14102143D01*
X5855928Y-14073571D01*
X5841643Y-14016429D01*
X5841643Y-13945000D01*
X5855928Y-13887857D01*
X5870214Y-13859286D01*
X5884500Y-13845000D01*
X5913071Y-13830714D01*
X6141643Y-14130714D02*
X6141643Y-13930714D01*
X6141643Y-13959286D02*
X6155928Y-13945000D01*
X6184500Y-13930714D01*
X6227357Y-13930714D01*
X6255928Y-13945000D01*
X6270214Y-13973571D01*
X6270214Y-14130714D01*
X6270214Y-13973571D02*
X6284500Y-13945000D01*
X6313071Y-13930714D01*
X6355928Y-13930714D01*
X6384500Y-13945000D01*
X6398786Y-13973571D01*
X6398786Y-14130714D01*
X6541643Y-14130714D02*
X6541643Y-13930714D01*
X6541643Y-13959286D02*
X6555928Y-13945000D01*
X6584500Y-13930714D01*
X6627357Y-13930714D01*
X6655928Y-13945000D01*
X6670214Y-13973571D01*
X6670214Y-14130714D01*
X6670214Y-13973571D02*
X6684500Y-13945000D01*
X6713071Y-13930714D01*
X6755928Y-13930714D01*
X6784500Y-13945000D01*
X6798786Y-13973571D01*
X6798786Y-14130714D01*
X7384500Y-13816429D02*
X7127357Y-14202143D01*
X7770214Y-13830714D02*
X7798786Y-13830714D01*
X7827357Y-13845000D01*
X7841643Y-13859286D01*
X7855928Y-13887857D01*
X7870214Y-13945000D01*
X7870214Y-14016429D01*
X7855928Y-14073571D01*
X7841643Y-14102143D01*
X7827357Y-14116429D01*
X7798786Y-14130714D01*
X7770214Y-14130714D01*
X7741643Y-14116429D01*
X7727357Y-14102143D01*
X7713071Y-14073571D01*
X7698786Y-14016429D01*
X7698786Y-13945000D01*
X7713071Y-13887857D01*
X7727357Y-13859286D01*
X7741643Y-13845000D01*
X7770214Y-13830714D01*
X7998786Y-14102143D02*
X8013071Y-14116429D01*
X7998786Y-14130714D01*
X7984500Y-14116429D01*
X7998786Y-14102143D01*
X7998786Y-14130714D01*
X8198786Y-13830714D02*
X8227357Y-13830714D01*
X8255928Y-13845000D01*
X8270214Y-13859286D01*
X8284500Y-13887857D01*
X8298786Y-13945000D01*
X8298786Y-14016429D01*
X8284500Y-14073571D01*
X8270214Y-14102143D01*
X8255928Y-14116429D01*
X8227357Y-14130714D01*
X8198786Y-14130714D01*
X8170214Y-14116429D01*
X8155928Y-14102143D01*
X8141643Y-14073571D01*
X8127357Y-14016429D01*
X8127357Y-13945000D01*
X8141643Y-13887857D01*
X8155928Y-13859286D01*
X8170214Y-13845000D01*
X8198786Y-13830714D01*
X8398786Y-13830714D02*
X8584500Y-13830714D01*
X8484500Y-13945000D01*
X8527357Y-13945000D01*
X8555928Y-13959286D01*
X8570214Y-13973571D01*
X8584500Y-14002143D01*
X8584500Y-14073571D01*
X8570214Y-14102143D01*
X8555928Y-14116429D01*
X8527357Y-14130714D01*
X8441643Y-14130714D01*
X8413071Y-14116429D01*
X8398786Y-14102143D01*
X8870214Y-14130714D02*
X8698786Y-14130714D01*
X8784500Y-14130714D02*
X8784500Y-13830714D01*
X8755928Y-13873571D01*
X8727357Y-13902143D01*
X8698786Y-13916429D01*
X9141643Y-13830714D02*
X8998786Y-13830714D01*
X8984500Y-13973571D01*
X8998786Y-13959286D01*
X9027357Y-13945000D01*
X9098786Y-13945000D01*
X9127357Y-13959286D01*
X9141643Y-13973571D01*
X9155928Y-14002143D01*
X9155928Y-14073571D01*
X9141643Y-14102143D01*
X9127357Y-14116429D01*
X9098786Y-14130714D01*
X9027357Y-14130714D01*
X8998786Y-14116429D01*
X8984500Y-14102143D01*
X9270214Y-13830714D02*
X9270214Y-13887857D01*
X9384500Y-13830714D02*
X9384500Y-13887857D01*
X9827357Y-14245000D02*
X9813071Y-14230714D01*
X9784500Y-14187857D01*
X9770214Y-14159286D01*
X9755928Y-14116429D01*
X9741643Y-14045000D01*
X9741643Y-13987857D01*
X9755928Y-13916429D01*
X9770214Y-13873571D01*
X9784500Y-13845000D01*
X9813071Y-13802143D01*
X9827357Y-13787857D01*
X10098786Y-14130714D02*
X9927357Y-14130714D01*
X10013071Y-14130714D02*
X10013071Y-13830714D01*
X9984500Y-13873571D01*
X9955928Y-13902143D01*
X9927357Y-13916429D01*
X10270214Y-13959286D02*
X10241643Y-13945000D01*
X10227357Y-13930714D01*
X10213071Y-13902143D01*
X10213071Y-13887857D01*
X10227357Y-13859286D01*
X10241643Y-13845000D01*
X10270214Y-13830714D01*
X10327357Y-13830714D01*
X10355928Y-13845000D01*
X10370214Y-13859286D01*
X10384500Y-13887857D01*
X10384500Y-13902143D01*
X10370214Y-13930714D01*
X10355928Y-13945000D01*
X10327357Y-13959286D01*
X10270214Y-13959286D01*
X10241643Y-13973571D01*
X10227357Y-13987857D01*
X10213071Y-14016429D01*
X10213071Y-14073571D01*
X10227357Y-14102143D01*
X10241643Y-14116429D01*
X10270214Y-14130714D01*
X10327357Y-14130714D01*
X10355928Y-14116429D01*
X10370214Y-14102143D01*
X10384500Y-14073571D01*
X10384500Y-14016429D01*
X10370214Y-13987857D01*
X10355928Y-13973571D01*
X10327357Y-13959286D01*
X10741643Y-14130714D02*
X10741643Y-13830714D01*
X10870214Y-14130714D02*
X10870214Y-13973571D01*
X10855928Y-13945000D01*
X10827357Y-13930714D01*
X10784500Y-13930714D01*
X10755928Y-13945000D01*
X10741643Y-13959286D01*
X11055928Y-14130714D02*
X11027357Y-14116429D01*
X11013071Y-14102143D01*
X10998786Y-14073571D01*
X10998786Y-13987857D01*
X11013071Y-13959286D01*
X11027357Y-13945000D01*
X11055928Y-13930714D01*
X11098786Y-13930714D01*
X11127357Y-13945000D01*
X11141643Y-13959286D01*
X11155928Y-13987857D01*
X11155928Y-14073571D01*
X11141643Y-14102143D01*
X11127357Y-14116429D01*
X11098786Y-14130714D01*
X11055928Y-14130714D01*
X11327357Y-14130714D02*
X11298786Y-14116429D01*
X11284500Y-14087857D01*
X11284500Y-13830714D01*
X11555928Y-14116429D02*
X11527357Y-14130714D01*
X11470214Y-14130714D01*
X11441643Y-14116429D01*
X11427357Y-14087857D01*
X11427357Y-13973571D01*
X11441643Y-13945000D01*
X11470214Y-13930714D01*
X11527357Y-13930714D01*
X11555928Y-13945000D01*
X11570214Y-13973571D01*
X11570214Y-14002143D01*
X11427357Y-14030714D01*
X11684500Y-14116429D02*
X11713071Y-14130714D01*
X11770214Y-14130714D01*
X11798786Y-14116429D01*
X11813071Y-14087857D01*
X11813071Y-14073571D01*
X11798786Y-14045000D01*
X11770214Y-14030714D01*
X11727357Y-14030714D01*
X11698786Y-14016429D01*
X11684500Y-13987857D01*
X11684500Y-13973571D01*
X11698786Y-13945000D01*
X11727357Y-13930714D01*
X11770214Y-13930714D01*
X11798786Y-13945000D01*
X11913071Y-14245000D02*
X11927357Y-14230714D01*
X11955928Y-14187857D01*
X11970214Y-14159286D01*
X11984500Y-14116429D01*
X11998786Y-14045000D01*
X11998786Y-13987857D01*
X11984500Y-13916429D01*
X11970214Y-13873571D01*
X11955928Y-13845000D01*
X11927357Y-13802143D01*
X11913071Y-13787857D01*
X4519500Y-14341000D02*
X4519500Y-14441000D01*
X4469500Y-14391000D02*
X4569500Y-14391000D01*
X5013071Y-14526714D02*
X4841643Y-14526714D01*
X4927357Y-14526714D02*
X4927357Y-14226714D01*
X4898786Y-14269571D01*
X4870214Y-14298143D01*
X4841643Y-14312429D01*
X5141643Y-14498143D02*
X5155928Y-14512429D01*
X5141643Y-14526714D01*
X5127357Y-14512429D01*
X5141643Y-14498143D01*
X5141643Y-14526714D01*
X5341643Y-14226714D02*
X5370214Y-14226714D01*
X5398786Y-14241000D01*
X5413071Y-14255286D01*
X5427357Y-14283857D01*
X5441643Y-14341000D01*
X5441643Y-14412429D01*
X5427357Y-14469571D01*
X5413071Y-14498143D01*
X5398786Y-14512429D01*
X5370214Y-14526714D01*
X5341643Y-14526714D01*
X5313071Y-14512429D01*
X5298786Y-14498143D01*
X5284500Y-14469571D01*
X5270214Y-14412429D01*
X5270214Y-14341000D01*
X5284500Y-14283857D01*
X5298786Y-14255286D01*
X5313071Y-14241000D01*
X5341643Y-14226714D01*
X5627357Y-14226714D02*
X5655928Y-14226714D01*
X5684500Y-14241000D01*
X5698786Y-14255286D01*
X5713071Y-14283857D01*
X5727357Y-14341000D01*
X5727357Y-14412429D01*
X5713071Y-14469571D01*
X5698786Y-14498143D01*
X5684500Y-14512429D01*
X5655928Y-14526714D01*
X5627357Y-14526714D01*
X5598786Y-14512429D01*
X5584500Y-14498143D01*
X5570214Y-14469571D01*
X5555928Y-14412429D01*
X5555928Y-14341000D01*
X5570214Y-14283857D01*
X5584500Y-14255286D01*
X5598786Y-14241000D01*
X5627357Y-14226714D01*
X5913071Y-14226714D02*
X5941643Y-14226714D01*
X5970214Y-14241000D01*
X5984500Y-14255286D01*
X5998786Y-14283857D01*
X6013071Y-14341000D01*
X6013071Y-14412429D01*
X5998786Y-14469571D01*
X5984500Y-14498143D01*
X5970214Y-14512429D01*
X5941643Y-14526714D01*
X5913071Y-14526714D01*
X5884500Y-14512429D01*
X5870214Y-14498143D01*
X5855928Y-14469571D01*
X5841643Y-14412429D01*
X5841643Y-14341000D01*
X5855928Y-14283857D01*
X5870214Y-14255286D01*
X5884500Y-14241000D01*
X5913071Y-14226714D01*
X6141643Y-14526714D02*
X6141643Y-14326714D01*
X6141643Y-14355286D02*
X6155928Y-14341000D01*
X6184500Y-14326714D01*
X6227357Y-14326714D01*
X6255928Y-14341000D01*
X6270214Y-14369571D01*
X6270214Y-14526714D01*
X6270214Y-14369571D02*
X6284500Y-14341000D01*
X6313071Y-14326714D01*
X6355928Y-14326714D01*
X6384500Y-14341000D01*
X6398786Y-14369571D01*
X6398786Y-14526714D01*
X6541643Y-14526714D02*
X6541643Y-14326714D01*
X6541643Y-14355286D02*
X6555928Y-14341000D01*
X6584500Y-14326714D01*
X6627357Y-14326714D01*
X6655928Y-14341000D01*
X6670214Y-14369571D01*
X6670214Y-14526714D01*
X6670214Y-14369571D02*
X6684500Y-14341000D01*
X6713071Y-14326714D01*
X6755928Y-14326714D01*
X6784500Y-14341000D01*
X6798786Y-14369571D01*
X6798786Y-14526714D01*
X7384500Y-14212429D02*
X7127357Y-14598143D01*
X7770214Y-14226714D02*
X7798786Y-14226714D01*
X7827357Y-14241000D01*
X7841643Y-14255286D01*
X7855928Y-14283857D01*
X7870214Y-14341000D01*
X7870214Y-14412429D01*
X7855928Y-14469571D01*
X7841643Y-14498143D01*
X7827357Y-14512429D01*
X7798786Y-14526714D01*
X7770214Y-14526714D01*
X7741643Y-14512429D01*
X7727357Y-14498143D01*
X7713071Y-14469571D01*
X7698786Y-14412429D01*
X7698786Y-14341000D01*
X7713071Y-14283857D01*
X7727357Y-14255286D01*
X7741643Y-14241000D01*
X7770214Y-14226714D01*
X7998786Y-14498143D02*
X8013071Y-14512429D01*
X7998786Y-14526714D01*
X7984500Y-14512429D01*
X7998786Y-14498143D01*
X7998786Y-14526714D01*
X8198786Y-14226714D02*
X8227357Y-14226714D01*
X8255928Y-14241000D01*
X8270214Y-14255286D01*
X8284500Y-14283857D01*
X8298786Y-14341000D01*
X8298786Y-14412429D01*
X8284500Y-14469571D01*
X8270214Y-14498143D01*
X8255928Y-14512429D01*
X8227357Y-14526714D01*
X8198786Y-14526714D01*
X8170214Y-14512429D01*
X8155928Y-14498143D01*
X8141643Y-14469571D01*
X8127357Y-14412429D01*
X8127357Y-14341000D01*
X8141643Y-14283857D01*
X8155928Y-14255286D01*
X8170214Y-14241000D01*
X8198786Y-14226714D01*
X8398786Y-14226714D02*
X8584500Y-14226714D01*
X8484500Y-14341000D01*
X8527357Y-14341000D01*
X8555928Y-14355286D01*
X8570214Y-14369571D01*
X8584500Y-14398143D01*
X8584500Y-14469571D01*
X8570214Y-14498143D01*
X8555928Y-14512429D01*
X8527357Y-14526714D01*
X8441643Y-14526714D01*
X8413071Y-14512429D01*
X8398786Y-14498143D01*
X8727357Y-14526714D02*
X8784500Y-14526714D01*
X8813071Y-14512429D01*
X8827357Y-14498143D01*
X8855928Y-14455286D01*
X8870214Y-14398143D01*
X8870214Y-14283857D01*
X8855928Y-14255286D01*
X8841643Y-14241000D01*
X8813071Y-14226714D01*
X8755928Y-14226714D01*
X8727357Y-14241000D01*
X8713071Y-14255286D01*
X8698786Y-14283857D01*
X8698786Y-14355286D01*
X8713071Y-14383857D01*
X8727357Y-14398143D01*
X8755928Y-14412429D01*
X8813071Y-14412429D01*
X8841643Y-14398143D01*
X8855928Y-14383857D01*
X8870214Y-14355286D01*
X9127357Y-14326714D02*
X9127357Y-14526714D01*
X9055928Y-14212429D02*
X8984500Y-14426714D01*
X9170214Y-14426714D01*
X9270214Y-14226714D02*
X9270214Y-14283857D01*
X9384500Y-14226714D02*
X9384500Y-14283857D01*
X9827357Y-14641000D02*
X9813071Y-14626714D01*
X9784500Y-14583857D01*
X9770214Y-14555286D01*
X9755928Y-14512429D01*
X9741643Y-14441000D01*
X9741643Y-14383857D01*
X9755928Y-14312429D01*
X9770214Y-14269571D01*
X9784500Y-14241000D01*
X9813071Y-14198143D01*
X9827357Y-14183857D01*
X9927357Y-14255286D02*
X9941643Y-14241000D01*
X9970214Y-14226714D01*
X10041643Y-14226714D01*
X10070214Y-14241000D01*
X10084500Y-14255286D01*
X10098786Y-14283857D01*
X10098786Y-14312429D01*
X10084500Y-14355286D01*
X9913071Y-14526714D01*
X10098786Y-14526714D01*
X10241643Y-14526714D02*
X10298786Y-14526714D01*
X10327357Y-14512429D01*
X10341643Y-14498143D01*
X10370214Y-14455286D01*
X10384500Y-14398143D01*
X10384500Y-14283857D01*
X10370214Y-14255286D01*
X10355928Y-14241000D01*
X10327357Y-14226714D01*
X10270214Y-14226714D01*
X10241643Y-14241000D01*
X10227357Y-14255286D01*
X10213071Y-14283857D01*
X10213071Y-14355286D01*
X10227357Y-14383857D01*
X10241643Y-14398143D01*
X10270214Y-14412429D01*
X10327357Y-14412429D01*
X10355928Y-14398143D01*
X10370214Y-14383857D01*
X10384500Y-14355286D01*
X10741643Y-14526714D02*
X10741643Y-14226714D01*
X10870214Y-14526714D02*
X10870214Y-14369571D01*
X10855928Y-14341000D01*
X10827357Y-14326714D01*
X10784500Y-14326714D01*
X10755928Y-14341000D01*
X10741643Y-14355286D01*
X11055928Y-14526714D02*
X11027357Y-14512429D01*
X11013071Y-14498143D01*
X10998786Y-14469571D01*
X10998786Y-14383857D01*
X11013071Y-14355286D01*
X11027357Y-14341000D01*
X11055928Y-14326714D01*
X11098786Y-14326714D01*
X11127357Y-14341000D01*
X11141643Y-14355286D01*
X11155928Y-14383857D01*
X11155928Y-14469571D01*
X11141643Y-14498143D01*
X11127357Y-14512429D01*
X11098786Y-14526714D01*
X11055928Y-14526714D01*
X11327357Y-14526714D02*
X11298786Y-14512429D01*
X11284500Y-14483857D01*
X11284500Y-14226714D01*
X11555928Y-14512429D02*
X11527357Y-14526714D01*
X11470214Y-14526714D01*
X11441643Y-14512429D01*
X11427357Y-14483857D01*
X11427357Y-14369571D01*
X11441643Y-14341000D01*
X11470214Y-14326714D01*
X11527357Y-14326714D01*
X11555928Y-14341000D01*
X11570214Y-14369571D01*
X11570214Y-14398143D01*
X11427357Y-14426714D01*
X11684500Y-14512429D02*
X11713071Y-14526714D01*
X11770214Y-14526714D01*
X11798786Y-14512429D01*
X11813071Y-14483857D01*
X11813071Y-14469571D01*
X11798786Y-14441000D01*
X11770214Y-14426714D01*
X11727357Y-14426714D01*
X11698786Y-14412429D01*
X11684500Y-14383857D01*
X11684500Y-14369571D01*
X11698786Y-14341000D01*
X11727357Y-14326714D01*
X11770214Y-14326714D01*
X11798786Y-14341000D01*
X11913071Y-14641000D02*
X11927357Y-14626714D01*
X11955928Y-14583857D01*
X11970214Y-14555286D01*
X11984500Y-14512429D01*
X11998786Y-14441000D01*
X11998786Y-14383857D01*
X11984500Y-14312429D01*
X11970214Y-14269571D01*
X11955928Y-14241000D01*
X11927357Y-14198143D01*
X11913071Y-14183857D01*
X4547241Y-14840741D02*
X4547241Y-14733259D01*
X4439759Y-14733259D01*
X4439759Y-14840741D01*
X4547241Y-14840741D01*
X5013071Y-14922714D02*
X4841643Y-14922714D01*
X4927357Y-14922714D02*
X4927357Y-14622714D01*
X4898786Y-14665571D01*
X4870214Y-14694143D01*
X4841643Y-14708429D01*
X5141643Y-14894143D02*
X5155928Y-14908429D01*
X5141643Y-14922714D01*
X5127357Y-14908429D01*
X5141643Y-14894143D01*
X5141643Y-14922714D01*
X5427357Y-14622714D02*
X5284500Y-14622714D01*
X5270214Y-14765571D01*
X5284500Y-14751286D01*
X5313071Y-14737000D01*
X5384500Y-14737000D01*
X5413071Y-14751286D01*
X5427357Y-14765571D01*
X5441643Y-14794143D01*
X5441643Y-14865571D01*
X5427357Y-14894143D01*
X5413071Y-14908429D01*
X5384500Y-14922714D01*
X5313071Y-14922714D01*
X5284500Y-14908429D01*
X5270214Y-14894143D01*
X5555928Y-14651286D02*
X5570214Y-14637000D01*
X5598786Y-14622714D01*
X5670214Y-14622714D01*
X5698786Y-14637000D01*
X5713071Y-14651286D01*
X5727357Y-14679857D01*
X5727357Y-14708429D01*
X5713071Y-14751286D01*
X5541643Y-14922714D01*
X5727357Y-14922714D01*
X5913071Y-14622714D02*
X5941643Y-14622714D01*
X5970214Y-14637000D01*
X5984500Y-14651286D01*
X5998786Y-14679857D01*
X6013071Y-14737000D01*
X6013071Y-14808429D01*
X5998786Y-14865571D01*
X5984500Y-14894143D01*
X5970214Y-14908429D01*
X5941643Y-14922714D01*
X5913071Y-14922714D01*
X5884500Y-14908429D01*
X5870214Y-14894143D01*
X5855928Y-14865571D01*
X5841643Y-14808429D01*
X5841643Y-14737000D01*
X5855928Y-14679857D01*
X5870214Y-14651286D01*
X5884500Y-14637000D01*
X5913071Y-14622714D01*
X6141643Y-14922714D02*
X6141643Y-14722714D01*
X6141643Y-14751286D02*
X6155928Y-14737000D01*
X6184500Y-14722714D01*
X6227357Y-14722714D01*
X6255928Y-14737000D01*
X6270214Y-14765571D01*
X6270214Y-14922714D01*
X6270214Y-14765571D02*
X6284500Y-14737000D01*
X6313071Y-14722714D01*
X6355928Y-14722714D01*
X6384500Y-14737000D01*
X6398786Y-14765571D01*
X6398786Y-14922714D01*
X6541643Y-14922714D02*
X6541643Y-14722714D01*
X6541643Y-14751286D02*
X6555928Y-14737000D01*
X6584500Y-14722714D01*
X6627357Y-14722714D01*
X6655928Y-14737000D01*
X6670214Y-14765571D01*
X6670214Y-14922714D01*
X6670214Y-14765571D02*
X6684500Y-14737000D01*
X6713071Y-14722714D01*
X6755928Y-14722714D01*
X6784500Y-14737000D01*
X6798786Y-14765571D01*
X6798786Y-14922714D01*
X7384500Y-14608429D02*
X7127357Y-14994143D01*
X7770214Y-14622714D02*
X7798786Y-14622714D01*
X7827357Y-14637000D01*
X7841643Y-14651286D01*
X7855928Y-14679857D01*
X7870214Y-14737000D01*
X7870214Y-14808429D01*
X7855928Y-14865571D01*
X7841643Y-14894143D01*
X7827357Y-14908429D01*
X7798786Y-14922714D01*
X7770214Y-14922714D01*
X7741643Y-14908429D01*
X7727357Y-14894143D01*
X7713071Y-14865571D01*
X7698786Y-14808429D01*
X7698786Y-14737000D01*
X7713071Y-14679857D01*
X7727357Y-14651286D01*
X7741643Y-14637000D01*
X7770214Y-14622714D01*
X7998786Y-14894143D02*
X8013071Y-14908429D01*
X7998786Y-14922714D01*
X7984500Y-14908429D01*
X7998786Y-14894143D01*
X7998786Y-14922714D01*
X8198786Y-14622714D02*
X8227357Y-14622714D01*
X8255928Y-14637000D01*
X8270214Y-14651286D01*
X8284500Y-14679857D01*
X8298786Y-14737000D01*
X8298786Y-14808429D01*
X8284500Y-14865571D01*
X8270214Y-14894143D01*
X8255928Y-14908429D01*
X8227357Y-14922714D01*
X8198786Y-14922714D01*
X8170214Y-14908429D01*
X8155928Y-14894143D01*
X8141643Y-14865571D01*
X8127357Y-14808429D01*
X8127357Y-14737000D01*
X8141643Y-14679857D01*
X8155928Y-14651286D01*
X8170214Y-14637000D01*
X8198786Y-14622714D01*
X8570214Y-14622714D02*
X8427357Y-14622714D01*
X8413071Y-14765571D01*
X8427357Y-14751286D01*
X8455928Y-14737000D01*
X8527357Y-14737000D01*
X8555928Y-14751286D01*
X8570214Y-14765571D01*
X8584500Y-14794143D01*
X8584500Y-14865571D01*
X8570214Y-14894143D01*
X8555928Y-14908429D01*
X8527357Y-14922714D01*
X8455928Y-14922714D01*
X8427357Y-14908429D01*
X8413071Y-14894143D01*
X8727357Y-14922714D02*
X8784500Y-14922714D01*
X8813071Y-14908429D01*
X8827357Y-14894143D01*
X8855928Y-14851286D01*
X8870214Y-14794143D01*
X8870214Y-14679857D01*
X8855928Y-14651286D01*
X8841643Y-14637000D01*
X8813071Y-14622714D01*
X8755928Y-14622714D01*
X8727357Y-14637000D01*
X8713071Y-14651286D01*
X8698786Y-14679857D01*
X8698786Y-14751286D01*
X8713071Y-14779857D01*
X8727357Y-14794143D01*
X8755928Y-14808429D01*
X8813071Y-14808429D01*
X8841643Y-14794143D01*
X8855928Y-14779857D01*
X8870214Y-14751286D01*
X9041643Y-14751286D02*
X9013071Y-14737000D01*
X8998786Y-14722714D01*
X8984500Y-14694143D01*
X8984500Y-14679857D01*
X8998786Y-14651286D01*
X9013071Y-14637000D01*
X9041643Y-14622714D01*
X9098786Y-14622714D01*
X9127357Y-14637000D01*
X9141643Y-14651286D01*
X9155928Y-14679857D01*
X9155928Y-14694143D01*
X9141643Y-14722714D01*
X9127357Y-14737000D01*
X9098786Y-14751286D01*
X9041643Y-14751286D01*
X9013071Y-14765571D01*
X8998786Y-14779857D01*
X8984500Y-14808429D01*
X8984500Y-14865571D01*
X8998786Y-14894143D01*
X9013071Y-14908429D01*
X9041643Y-14922714D01*
X9098786Y-14922714D01*
X9127357Y-14908429D01*
X9141643Y-14894143D01*
X9155928Y-14865571D01*
X9155928Y-14808429D01*
X9141643Y-14779857D01*
X9127357Y-14765571D01*
X9098786Y-14751286D01*
X9270214Y-14622714D02*
X9270214Y-14679857D01*
X9384500Y-14622714D02*
X9384500Y-14679857D01*
X9827357Y-15037000D02*
X9813071Y-15022714D01*
X9784500Y-14979857D01*
X9770214Y-14951286D01*
X9755928Y-14908429D01*
X9741643Y-14837000D01*
X9741643Y-14779857D01*
X9755928Y-14708429D01*
X9770214Y-14665571D01*
X9784500Y-14637000D01*
X9813071Y-14594143D01*
X9827357Y-14579857D01*
X10084500Y-14622714D02*
X9941643Y-14622714D01*
X9927357Y-14765571D01*
X9941643Y-14751286D01*
X9970214Y-14737000D01*
X10041643Y-14737000D01*
X10070214Y-14751286D01*
X10084500Y-14765571D01*
X10098786Y-14794143D01*
X10098786Y-14865571D01*
X10084500Y-14894143D01*
X10070214Y-14908429D01*
X10041643Y-14922714D01*
X9970214Y-14922714D01*
X9941643Y-14908429D01*
X9927357Y-14894143D01*
X10455928Y-14922714D02*
X10455928Y-14622714D01*
X10584500Y-14922714D02*
X10584500Y-14765571D01*
X10570214Y-14737000D01*
X10541643Y-14722714D01*
X10498786Y-14722714D01*
X10470214Y-14737000D01*
X10455928Y-14751286D01*
X10770214Y-14922714D02*
X10741643Y-14908429D01*
X10727357Y-14894143D01*
X10713071Y-14865571D01*
X10713071Y-14779857D01*
X10727357Y-14751286D01*
X10741643Y-14737000D01*
X10770214Y-14722714D01*
X10813071Y-14722714D01*
X10841643Y-14737000D01*
X10855928Y-14751286D01*
X10870214Y-14779857D01*
X10870214Y-14865571D01*
X10855928Y-14894143D01*
X10841643Y-14908429D01*
X10813071Y-14922714D01*
X10770214Y-14922714D01*
X11041643Y-14922714D02*
X11013071Y-14908429D01*
X10998786Y-14879857D01*
X10998786Y-14622714D01*
X11270214Y-14908429D02*
X11241643Y-14922714D01*
X11184500Y-14922714D01*
X11155928Y-14908429D01*
X11141643Y-14879857D01*
X11141643Y-14765571D01*
X11155928Y-14737000D01*
X11184500Y-14722714D01*
X11241643Y-14722714D01*
X11270214Y-14737000D01*
X11284500Y-14765571D01*
X11284500Y-14794143D01*
X11141643Y-14822714D01*
X11398786Y-14908429D02*
X11427357Y-14922714D01*
X11484500Y-14922714D01*
X11513071Y-14908429D01*
X11527357Y-14879857D01*
X11527357Y-14865571D01*
X11513071Y-14837000D01*
X11484500Y-14822714D01*
X11441643Y-14822714D01*
X11413071Y-14808429D01*
X11398786Y-14779857D01*
X11398786Y-14765571D01*
X11413071Y-14737000D01*
X11441643Y-14722714D01*
X11484500Y-14722714D01*
X11513071Y-14737000D01*
X11627357Y-15037000D02*
X11641643Y-15022714D01*
X11670214Y-14979857D01*
X11684500Y-14951286D01*
X11698786Y-14908429D01*
X11713071Y-14837000D01*
X11713071Y-14779857D01*
X11698786Y-14708429D01*
X11684500Y-14665571D01*
X11670214Y-14637000D01*
X11641643Y-14594143D01*
X11627357Y-14579857D01*
M02*
